<?xml version="1.0" encoding="UTF-8" standalone="no"?>
<svg width="16px" height="16px" viewBox="0 0 16 16" version="1.1" xmlns="http://www.w3.org/2000/svg" xmlns:xlink="http://www.w3.org/1999/xlink">
    <!-- Generator: sketchtool 3.7.2 (28276) - http://www.bohemiancoding.com/sketch -->
    <title>51D0557A-5817-4B6B-885A-3405955116BC</title>
    <desc>Created with sketchtool.</desc>
    <defs></defs>
    <g id="On-page-audit" stroke="none" stroke-width="1" fill="none" fill-rule="evenodd">
        <g id="audit_example_expanded_clear_background" transform="translate(-160.000000, -559.000000)" fill="#4CC048">
            <g id="Categories-Score" transform="translate(130.000000, 215.000000)">
                <g id="Overall-Score" transform="translate(30.000000, 20.000000)">
                    <g id="TXT" transform="translate(0.000000, 320.000000)">
                        <g id="icnApproved" transform="translate(0.000000, 4.000000)">
                            <path d="M8,16 C12.418278,16 16,12.418278 16,8 C16,3.581722 12.418278,0 8,0 C3.581722,0 0,3.581722 0,8 C0,12.418278 3.581722,16 8,16 Z M6.38983567,11.9215432 C6.59535584,12.1270633 6.90804758,12.1170628 7.10707809,11.9180323 L12.4573927,5.56771778 C12.6567944,5.36831598 12.657995,5.04756689 12.4609035,4.85047535 L11.7604215,4.14999338 C11.5549013,3.94447321 11.2422096,3.9544737 11.0431791,4.15350421 L6.59613037,9.28155518 L4.55836065,7.26164102 C4.37230339,7.07558376 4.0513933,7.07422219 3.85430177,7.27131372 L3.15381979,7.9717957 C2.94829962,8.17731587 2.95239764,8.48410513 3.14414709,8.67585459 L5.69087765,11.2225851 L6.38983567,11.9215432 Z"></path>
                        </g>
                    </g>
                </g>
            </g>
        </g>
    </g>
</svg>