<?xml version="1.0" encoding="UTF-8" standalone="no"?>
<svg width="16px" height="16px" viewBox="0 0 16 16" version="1.1" xmlns="http://www.w3.org/2000/svg" xmlns:xlink="http://www.w3.org/1999/xlink">
    <!-- Generator: sketchtool 3.7.2 (28276) - http://www.bohemiancoding.com/sketch -->
    <title>A56B51EA-1706-4C3E-BDC2-ED284DA38476</title>
    <desc>Created with sketchtool.</desc>
    <defs></defs>
    <g id="On-page-audit" stroke="none" stroke-width="1" fill="none" fill-rule="evenodd">
        <g id="audit_example_expanded_clear_background" transform="translate(-160.000000, -631.000000)" fill="#FF5533">
            <g id="Categories-Score" transform="translate(130.000000, 215.000000)">
                <g id="Overall-Score" transform="translate(30.000000, 20.000000)">
                    <g id="TXT" transform="translate(0.000000, 320.000000)">
                        <g id="icnErrors" transform="translate(0.000000, 76.000000)">
                            <path d="M8,16 C12.418278,16 16,12.418278 16,8 C16,3.581722 12.418278,0 8,0 C3.581722,0 0,3.581722 0,8 C0,12.418278 3.581722,16 8,16 Z M9.41421356,8 L11.8822641,5.5319495 C12.0816659,5.33254771 12.0828664,5.01179862 11.8857749,4.81470708 L11.1852929,4.11422511 C10.9797727,3.90870494 10.667081,3.91870543 10.4680505,4.11773594 L8,6.58578644 L5.5319495,4.11773594 C5.33254771,3.91833414 5.01179862,3.91713357 4.81470708,4.11422511 L4.11422511,4.81470708 C3.90870494,5.02022725 3.91870543,5.33291899 4.11773594,5.5319495 L6.58578644,8 L4.11773594,10.4680505 C3.91833414,10.6674523 3.91713357,10.9882014 4.11422511,11.1852929 L4.81470708,11.8857749 C5.02022725,12.0912951 5.33291899,12.0812946 5.5319495,11.8822641 L8,9.41421356 L10.4680505,11.8822641 C10.6674523,12.0816659 10.9882014,12.0828664 11.1852929,11.8857749 L11.8857749,11.1852929 C12.0912951,10.9797727 12.0812946,10.667081 11.8822641,10.4680505 L9.41421356,8 Z"></path>
                        </g>
                    </g>
                </g>
            </g>
        </g>
    </g>
</svg>