<?xml version="1.0" encoding="UTF-8" standalone="no"?>
<svg width="20px" height="12px" viewBox="0 0 20 12" version="1.1" xmlns="http://www.w3.org/2000/svg" xmlns:xlink="http://www.w3.org/1999/xlink">
    <!-- Generator: Sketch 3.8.1 (29687) - http://www.bohemiancoding.com/sketch -->
    <title>icn_vk</title>
    <desc>Created with Sketch.</desc>
    <defs></defs>
    <g id="On-page-audit" stroke="none" stroke-width="1" fill="none" fill-rule="evenodd">
        <g id="audit_example_minimized_clear_background-(PDF)" transform="translate(-360.000000, -12638.000000)" fill="#FFFFFF">
            <g id="Group-28" transform="translate(130.000000, 765.000000)">
                <g id="13" transform="translate(0.000000, 11693.000000)">
                    <g id="1" transform="translate(0.000000, 135.000000)">
                        <g id="Page">
                            <g id="g+" transform="translate(140.000000, 37.000000)">
                                <g id="icn_vk">
                                    <path d="M109.87071,18.8266752 C109.846521,18.7719873 109.823971,18.7266242 109.803024,18.6902803 C109.45643,18.0354395 108.794098,17.2316688 107.81643,16.2787389 L107.795774,16.2569172 L107.785428,16.2462166 L107.774973,16.2352484 L107.764481,16.2352484 C107.320765,15.7915159 107.039781,15.4931592 106.922113,15.3404076 C106.706812,15.0494268 106.658579,14.7548917 106.776248,14.4564586 C106.859381,14.2309809 107.171658,13.7548025 107.71235,13.0272739 C107.996758,12.641707 108.222004,12.3326879 108.388342,12.0998726 C109.588015,10.4267516 110.108124,9.3576051 109.948561,8.89201274 L109.886594,8.78321019 C109.844954,8.71770701 109.737486,8.65778344 109.564335,8.60313376 C109.390783,8.54859873 109.168962,8.53957962 108.89847,8.57592357 L105.90306,8.59763057 C105.854536,8.57959236 105.785246,8.58127389 105.694973,8.60313376 C105.604809,8.62499363 105.559709,8.63596178 105.559709,8.63596178 L105.507577,8.66328662 L105.466193,8.69611465 C105.431512,8.71782166 105.39337,8.756 105.35173,8.81057325 C105.31031,8.86495541 105.275665,8.92877707 105.247978,9.00150318 C104.921858,9.88166879 104.551075,10.7 104.134936,11.4564586 C103.878361,11.9075287 103.642732,12.2984459 103.427541,12.6294395 C103.212641,12.9603185 103.03235,13.2041019 102.886849,13.3603694 C102.741129,13.5167898 102.609617,13.6421019 102.491512,13.7367643 C102.373588,13.831465 102.28357,13.8714777 102.221239,13.8568408 C102.158761,13.8422038 102.099927,13.8276815 102.044226,13.8131592 C101.947213,13.7476561 101.86918,13.6585732 101.810346,13.5458344 C101.751257,13.4330955 101.711475,13.2911975 101.690674,13.1202548 C101.669982,12.9491975 101.657741,12.8020637 101.654244,12.6783567 C101.651002,12.5548025 101.652495,12.3800382 101.659526,12.1545605 C101.66674,11.9289682 101.669982,11.7763312 101.669982,11.6963057 C101.669982,11.4198471 101.675118,11.1198089 101.685428,10.7961146 C101.69592,10.4724204 101.704408,10.215949 101.711512,10.0270064 C101.718579,9.83787261 101.721858,9.6377707 101.721858,9.42681529 C101.721858,9.21585987 101.709617,9.05042038 101.685428,8.93034395 C101.66153,8.81042038 101.624845,8.69401274 101.576503,8.58115924 C101.527869,8.46842038 101.456685,8.38121019 101.363279,8.31929936 C101.26969,8.25746497 101.153333,8.2083949 101.014863,8.17193631 C100.647322,8.0846879 100.179308,8.03749045 99.6106011,8.03015287 C98.3209472,8.01563057 97.4922769,8.10299363 97.1247723,8.29212739 C96.9791621,8.37203822 96.8473953,8.48122293 96.7295811,8.61933758 C96.6047359,8.77942675 96.5873224,8.86678981 96.6774499,8.88115924 C97.0935519,8.94654777 97.3881239,9.10296815 97.5614936,9.35026752 L97.6239709,9.4813121 C97.6725683,9.57585987 97.7210929,9.74324841 97.7696539,9.98324841 C97.8181421,10.2232484 97.8494353,10.4887389 97.8632058,10.7795669 C97.8978142,11.3106624 97.8978142,11.7652866 97.8632058,12.1434777 C97.8284882,12.5218217 97.7957013,12.8163567 97.764408,13.0273121 C97.7331148,13.2382675 97.6863388,13.4092102 97.6239709,13.5401019 C97.5614936,13.6710318 97.5199271,13.7510573 97.4990893,13.7801019 C97.4782878,13.8091465 97.4609472,13.8274522 97.4471767,13.8346369 C97.3570492,13.8708662 97.2633151,13.8893248 97.1663024,13.8893248 C97.0691439,13.8893248 96.9513297,13.8383439 96.8126776,13.7364586 C96.6740619,13.6345732 96.5302004,13.4946242 96.3810929,13.3163822 C96.2319854,13.1381019 96.0638251,12.8889682 95.8765392,12.5689427 C95.6893989,12.2489172 95.4952277,11.8706879 95.2941348,11.4342548 L95.1277596,11.1177452 C95.0237523,10.9141274 94.8816758,10.6176433 94.7013843,10.2285605 C94.5209836,9.83932484 94.3615301,9.46281529 94.2229144,9.09910828 C94.1675046,8.94635669 94.0842623,8.83006369 93.9733333,8.75003822 L93.921275,8.71721019 C93.8866667,8.68816561 93.8311111,8.65732484 93.7548998,8.6244586 C93.6785792,8.59163057 93.5989435,8.56808917 93.5156648,8.5536051 L90.6657923,8.5753121 C90.3745719,8.5753121 90.1769763,8.64452229 90.0729326,8.78275159 L90.0312933,8.84814013 C90.0104918,8.88456051 90,8.94272611 90,9.02278981 C90,9.10281529 90.0208015,9.20103185 90.0624408,9.31732484 C90.4784699,10.3430573 90.9308925,11.332293 91.4197086,12.2851847 C91.9085246,13.2380764 92.3332969,14.0056561 92.6937705,14.5872357 C93.0543169,15.1692357 93.4218215,15.7185223 93.7962842,16.234828 C94.1707468,16.7513248 94.4186157,17.0823185 94.5398907,17.2277325 C94.6613115,17.373414 94.7566849,17.4823312 94.8260109,17.5550573 L95.0860838,17.816879 C95.2524954,17.9914904 95.496867,18.2006115 95.8193078,18.444242 C96.1418215,18.6880255 96.4988707,18.9280255 96.8906375,19.1646242 C97.2824772,19.4008408 97.7383242,19.5936051 98.2584335,19.7426879 C98.7784699,19.8919236 99.2846266,19.9518089 99.7769763,19.9229172 L100.973115,19.9229172 C101.215701,19.9009427 101.39949,19.8209172 101.524408,19.6828025 L101.565792,19.6281146 C101.593625,19.5847006 101.619672,19.5172484 101.643716,19.4264841 C101.668051,19.3355669 101.680146,19.2354013 101.680146,19.1264459 C101.673042,18.8137197 101.695738,18.5318726 101.747614,18.2809427 C101.799454,18.0300892 101.858543,17.8409554 101.924627,17.7135796 C101.990674,17.5863185 102.065209,17.4789299 102.14816,17.3918726 C102.231293,17.3046242 102.290528,17.2517707 102.325282,17.2335796 C102.359818,17.2152739 102.387395,17.2028535 102.408197,17.1954013 C102.574608,17.1372357 102.770455,17.1935669 102.996029,17.3646624 C103.221421,17.5356051 103.432823,17.7466752 103.630565,17.9975287 C103.828197,18.2486115 104.065647,18.5303057 104.342951,18.8430318 C104.620437,19.1558726 104.86306,19.3884204 105.071002,19.5414013 L105.278944,19.6723312 C105.417814,19.7596943 105.598106,19.8397197 105.820036,19.9124459 C106.041566,19.9851338 106.235665,20.0033248 106.402332,19.9669809 L109.064882,19.923414 C109.328233,19.923414 109.533151,19.8776688 109.678506,19.7869045 C109.824153,19.6959873 109.910674,19.5958217 109.938579,19.4868662 C109.966412,19.3777962 109.967905,19.254051 109.943862,19.115707 C109.919199,18.977707 109.8949,18.8812102 109.87071,18.8266752 L109.87071,18.8266752 Z"></path>
                                </g>
                            </g>
                        </g>
                    </g>
                </g>
            </g>
        </g>
    </g>
</svg>