<?xml version="1.0" encoding="UTF-8" standalone="no"?>
<svg width="16px" height="16px" viewBox="0 0 16 16" version="1.1" xmlns="http://www.w3.org/2000/svg" xmlns:xlink="http://www.w3.org/1999/xlink">
    <!-- Generator: sketchtool 3.7.1 (28215) - http://www.bohemiancoding.com/sketch -->
    <title>F272293A-A045-43C8-AB06-4FFB81865735</title>
    <desc>Created with sketchtool.</desc>
    <defs></defs>
    <g id="Page-1" stroke="none" stroke-width="1" fill="none" fill-rule="evenodd">
        <g id="audit_example_minimized_clear_background" transform="translate(-145.000000, -10861.000000)" fill="#7C888D">
            <g id="11" transform="translate(130.000000, 10356.000000)">
                <g id="8" transform="translate(0.000000, 362.000000)">
                    <g id="table" transform="translate(0.000000, 48.000000)">
                        <g id="icons" transform="translate(15.000000, 56.000000)">
                            <path d="M0,40.9940603 C0,39.8927712 0.894513756,39 1.99406028,39 L14.0059397,39 C15.1072288,39 16,39.8945138 16,40.9940603 L16,53.0059397 C16,54.1072288 15.1054862,55 14.0059397,55 L1.99406028,55 C0.892771196,55 0,54.1054862 0,53.0059397 L0,40.9940603 Z M2,42.0024733 C2,41.4488226 2.45576096,41 3.00247329,41 L12.9975267,41 C13.5511774,41 14,41.455761 14,42.0024733 L14,51.9975267 C14,52.5511774 13.544239,53 12.9975267,53 L3.00247329,53 C2.44882258,53 2,52.544239 2,51.9975267 L2,42.0024733 Z M2.192,47.168 C2.192,46.7146644 2.25066608,46.3040018 2.368,45.936 C2.48533392,45.5679982 2.64799896,45.2533346 2.856,44.992 C3.06400104,44.7306654 3.31066524,44.529334 3.596,44.388 C3.88133476,44.246666 4.19466496,44.176 4.536,44.176 C4.7493344,44.176 4.94399912,44.1959998 5.12,44.236 C5.29600088,44.2760002 5.45199932,44.3306663 5.588,44.4 C5.72400068,44.4693337 5.84399948,44.5466662 5.948,44.632 C6.05200052,44.7173338 6.14133296,44.8079995 6.216,44.904 L5.288,46.224 C5.21866632,46.1333329 5.14133376,46.0520004 5.056,45.98 C4.97066624,45.9079996 4.85066744,45.872 4.696,45.872 C4.58399944,45.872 4.48400044,45.9039997 4.396,45.968 C4.30799956,46.0320003 4.23200032,46.1213328 4.168,46.236 C4.10399968,46.3506672 4.05600016,46.4879992 4.024,46.648 C3.99199984,46.8080008 3.976,46.9813324 3.976,47.168 C3.976,47.3546676 3.99199984,47.5253326 4.024,47.68 C4.05600016,47.8346674 4.10399968,47.9693328 4.168,48.084 C4.23200032,48.1986672 4.30933288,48.2879997 4.4,48.352 C4.49066712,48.4160003 4.59199944,48.448 4.704,48.448 C4.83200064,48.448 4.9426662,48.4120004 5.036,48.34 C5.1293338,48.2679996 5.20533304,48.1893338 5.264,48.104 L6.232,49.384 C6.1519996,49.4906672 6.0586672,49.5906662 5.952,49.684 C5.8453328,49.7773338 5.72400068,49.8586663 5.588,49.928 C5.45199932,49.9973337 5.2973342,50.0533331 5.124,50.096 C4.9506658,50.1386669 4.75466776,50.16 4.536,50.16 C4.19466496,50.16 3.88133476,50.0880007 3.596,49.944 C3.31066524,49.7999993 3.06400104,49.5960013 2.856,49.332 C2.64799896,49.0679987 2.48533392,48.7533352 2.368,48.388 C2.25066608,48.0226648 2.192,47.6160022 2.192,47.168 Z M7.96,50.144 C7.76799904,50.144 7.5853342,50.1266668 7.412,50.092 C7.2386658,50.0573332 7.0786674,50.010667 6.932,49.952 C6.7853326,49.893333 6.65066728,49.826667 6.528,49.752 C6.40533272,49.677333 6.30133376,49.602667 6.216,49.528 L7.048,48.208 C7.17066728,48.3093338 7.3053326,48.3919997 7.452,48.456 C7.5986674,48.5200003 7.74399928,48.552 7.888,48.552 C7.97866712,48.552 8.05466636,48.5293336 8.116,48.484 C8.17733364,48.4386664 8.208,48.3733338 8.208,48.288 C8.208,48.1866662 8.16400044,48.1013337 8.076,48.032 C7.98799956,47.9626663 7.8506676,47.8826671 7.664,47.792 C7.5039992,47.717333 7.35200072,47.6333338 7.208,47.54 C7.06399928,47.4466662 6.93600056,47.333334 6.824,47.2 C6.71199944,47.066666 6.622667,46.9106676 6.556,46.732 C6.489333,46.5533324 6.456,46.3440012 6.456,46.104 C6.456,45.7573316 6.51733272,45.4626679 6.64,45.22 C6.76266728,44.9773321 6.91866572,44.7800008 7.108,44.628 C7.29733428,44.4759992 7.50799884,44.3653337 7.74,44.296 C7.97200116,44.2266663 8.19999888,44.192 8.424,44.192 C8.76533504,44.192 9.07066532,44.2453328 9.34,44.352 C9.60933468,44.4586672 9.83466576,44.5973325 10.016,44.768 L9.16,46.072 C9.06933288,45.9813329 8.96266728,45.9053336 8.84,45.844 C8.71733272,45.7826664 8.60000056,45.752 8.488,45.752 C8.40266624,45.752 8.32533368,45.7733331 8.256,45.816 C8.18666632,45.8586669 8.152,45.9333328 8.152,46.04 C8.152,46.1253338 8.18799964,46.1946664 8.26,46.248 C8.33200036,46.3013336 8.47199896,46.3786662 8.68,46.48 C8.79733392,46.538667 8.92799928,46.6119996 9.072,46.7 C9.21600072,46.7880004 9.35199936,46.8999993 9.48,47.036 C9.60800064,47.1720007 9.71599956,47.335999 9.804,47.528 C9.89200044,47.720001 9.936,47.9466654 9.936,48.208 C9.936,48.549335 9.88000056,48.8426654 9.768,49.088 C9.65599944,49.3333346 9.5066676,49.5333326 9.32,49.688 C9.1333324,49.8426674 8.92133452,49.957333 8.684,50.032 C8.44666548,50.106667 8.20533456,50.144 7.96,50.144 Z M11.784,50.144 C11.591999,50.144 11.4093342,50.1266668 11.236,50.092 C11.0626658,50.0573332 10.9026674,50.010667 10.756,49.952 C10.6093326,49.893333 10.4746673,49.826667 10.352,49.752 C10.2293327,49.677333 10.1253338,49.602667 10.04,49.528 L10.872,48.208 C10.9946673,48.3093338 11.1293326,48.3919997 11.276,48.456 C11.4226674,48.5200003 11.5679993,48.552 11.712,48.552 C11.8026671,48.552 11.8786664,48.5293336 11.94,48.484 C12.0013336,48.4386664 12.032,48.3733338 12.032,48.288 C12.032,48.1866662 11.9880004,48.1013337 11.9,48.032 C11.8119996,47.9626663 11.6746676,47.8826671 11.488,47.792 C11.3279992,47.717333 11.1760007,47.6333338 11.032,47.54 C10.8879993,47.4466662 10.7600006,47.333334 10.648,47.2 C10.5359994,47.066666 10.446667,46.9106676 10.38,46.732 C10.313333,46.5533324 10.28,46.3440012 10.28,46.104 C10.28,45.7573316 10.3413327,45.4626679 10.464,45.22 C10.5866673,44.9773321 10.7426657,44.7800008 10.932,44.628 C11.1213343,44.4759992 11.3319988,44.3653337 11.564,44.296 C11.7960012,44.2266663 12.0239989,44.192 12.248,44.192 C12.589335,44.192 12.8946653,44.2453328 13.164,44.352 C13.4333347,44.4586672 13.6586658,44.5973325 13.84,44.768 L12.984,46.072 C12.8933329,45.9813329 12.7866673,45.9053336 12.664,45.844 C12.5413327,45.7826664 12.4240006,45.752 12.312,45.752 C12.2266662,45.752 12.1493337,45.7733331 12.08,45.816 C12.0106663,45.8586669 11.976,45.9333328 11.976,46.04 C11.976,46.1253338 12.0119996,46.1946664 12.084,46.248 C12.1560004,46.3013336 12.295999,46.3786662 12.504,46.48 C12.6213339,46.538667 12.7519993,46.6119996 12.896,46.7 C13.0400007,46.7880004 13.1759994,46.8999993 13.304,47.036 C13.4320006,47.1720007 13.5399996,47.335999 13.628,47.528 C13.7160004,47.720001 13.76,47.9466654 13.76,48.208 C13.76,48.549335 13.7040006,48.8426654 13.592,49.088 C13.4799994,49.3333346 13.3306676,49.5333326 13.144,49.688 C12.9573324,49.8426674 12.7453345,49.957333 12.508,50.032 C12.2706655,50.106667 12.0293346,50.144 11.784,50.144 Z" id="icn_css"></path>
                        </g>
                    </g>
                </g>
            </g>
        </g>
    </g>
</svg>