<?xml version="1.0" encoding="UTF-8" standalone="no"?>
<svg width="16px" height="16px" viewBox="0 0 16 16" version="1.1" xmlns="http://www.w3.org/2000/svg" xmlns:xlink="http://www.w3.org/1999/xlink">
    <!-- Generator: sketchtool 3.7.2 (28276) - http://www.bohemiancoding.com/sketch -->
    <title>12F15350-68BA-4629-B402-7DBE737C625E</title>
    <desc>Created with sketchtool.</desc>
    <defs></defs>
    <g id="On-page-audit" stroke="none" stroke-width="1" fill="none" fill-rule="evenodd">
        <g id="audit_example_minimized_clear_background" transform="translate(-850.000000, -3603.000000)">
            <g id="5" transform="translate(130.000000, 3515.000000)">
                <g id="1" transform="translate(0.000000, 74.000000)">
                    <g id="Group" transform="translate(720.000000, 14.000000)">
                        <g id="icnGoogleNew">
                            <path d="M15.9674797,7.84615385 C15.9674797,7.33772308 15.9219512,6.84184615 15.8308943,6.3648 L15.2,6.3648 L12.7349593,6.3648 L8.16260163,6.3648 L8.16260163,9.33378462 L12.8,9.33378462 C12.500813,10.3632 11.8634146,11.2419692 11.0178862,11.8445538 L13.4113821,13.6836923 C14.9918699,12.2462769 15.9674797,10.1623385 15.9674797,7.84615385 L15.9674797,7.84615385 Z" id="Shape" fill="#3284FF"></path>
                            <path d="M8.26666667,3.1824 C9.43089431,3.1824 10.4845528,3.5904 11.297561,4.26830769 L13.5089431,2.10276923 C12.1235772,0.803446154 10.2569106,0.00627692308 8.16260163,0.00627692308 C5.04065041,0.00627692308 2.25691057,1.77636923 0.904065041,4.34990769 L3.62276423,6.35224615 C4.31869919,4.50055385 6.16585366,3.1824 8.26666667,3.1824 L8.26666667,3.1824 Z" id="Shape" fill="#FF3424"></path>
                            <path d="M0.956097561,11.4428308 L3.57723577,9.42793846 C3.41463415,8.96344615 3.3300813,8.46756923 3.3300813,7.95286154 C3.3300813,7.38793846 3.43414634,6.84812308 3.62276423,6.34596923 L0.904065041,4.34363077 C0.351219512,5.39815385 0.0325203252,6.58449231 0.0325203252,7.84615385 C0.0325203252,9.14547692 0.370731707,10.3632 0.956097561,11.4428308 L0.956097561,11.4428308 Z" id="Shape" fill="#FFBB00"></path>
                            <path d="M3.57723577,9.42793846 L0.956097561,11.4428308 C2.32845528,13.9661538 5.0796748,15.6923077 8.16260163,15.6923077 C10.2113821,15.6923077 12.0390244,14.9328 13.4113821,13.6836923 L11.0178862,11.8445538 C10.2504065,12.3969231 9.30081301,12.7233231 8.2601626,12.7233231 C6.1203252,12.7233231 4.23414634,11.3424 3.57723577,9.42793846 L3.57723577,9.42793846 Z" id="Shape" fill="#26B14C"></path>
                        </g>
                    </g>
                </g>
            </g>
        </g>
    </g>
</svg>