<?xml version="1.0" encoding="UTF-8" standalone="no"?>
<svg width="16px" height="16px" viewBox="0 0 16 16" version="1.1" xmlns="http://www.w3.org/2000/svg" xmlns:xlink="http://www.w3.org/1999/xlink">
    <!-- Generator: sketchtool 3.7.2 (28276) - http://www.bohemiancoding.com/sketch -->
    <title>F6A4258B-CA57-4152-8F29-1FC5FBAD3960</title>
    <desc>Created with sketchtool.</desc>
    <defs>
        <linearGradient x1="50%" y1="0%" x2="50%" y2="100%" id="linearGradient-1">
            <stop stop-color="#4F22B3" offset="0%"></stop>
            <stop stop-color="#391680" offset="100%"></stop>
        </linearGradient>
        <path d="M8.01998942,1.08823234 C5.19333333,1.08823234 2.52047619,0.71641949 0,0 L0,16 C2.52047619,15.2835699 5.19333333,14.9117624 8.01998942,14.9117624 C10.8145026,14.9117624 13.4788413,15.2754642 16,16 L16,1.00092097e-15 C13.4788413,0.724678705 10.8145026,1.08823234 8.01998942,1.08823234 L8.01998942,1.08823234 Z M12.9992691,2.00107594 L12.8913432,2.16600414 C12.7897694,2.32128892 12.6988913,2.45370993 12.5718201,2.6380108 C12.4021144,2.882553 12.0859069,3.36495281 11.7068799,3.98604614 C11.6021983,4.15718962 11.4734514,4.36583655 11.337158,4.58672518 C11.081429,5.00119756 10.7915627,5.47097794 10.566679,5.84517116 C10.4722,6.00386118 10.3759681,6.16510943 10.2790707,6.32761675 C10.0277269,6.74900835 9.76780869,7.18473059 9.51923984,7.60566434 C9.26135976,8.04205045 9.00891668,8.46936546 8.75694302,8.89816847 L8.75694302,9.32758957 C8.75694302,9.92342688 8.76976007,10.5708865 8.79293416,11.1507449 C8.80398048,11.4143221 8.81516346,11.8841941 8.82700007,12.3816342 C8.8411125,12.974009 8.85569435,13.586512 8.87119722,13.8956851 L8.8758261,13.9887198 L8.87638465,14 L8.77210719,13.9713502 C8.73124355,13.9601272 8.68977381,13.9499 8.64781088,13.9405427 C8.52006817,13.9146686 8.38364408,13.893539 8.24995335,13.8813201 C8.16822012,13.8748817 8.08514992,13.8716424 8.00098044,13.8716424 L7.99997029,13.8716424 L7.99898985,13.8716424 C7.9147966,13.8716424 7.83174422,13.8748817 7.74999317,13.8813201 C7.6163678,13.893539 7.47991995,13.9146629 7.35215941,13.9405427 C7.31021431,13.9499 7.26875051,13.9601272 7.22785716,13.9713502 L7.1235797,14 L7.12416202,13.9887198 L7.12879089,13.8956851 C7.14428782,13.5865177 7.15887562,12.974009 7.17297022,12.3816342 C7.18482466,11.8841941 7.19600764,11.4143164 7.20701236,11.1507449 C7.23022804,10.5708922 7.24302727,9.9234326 7.24302727,9.32758957 L7.24302727,8.89816847 C6.99105361,8.46935973 6.73860459,8.04205045 6.48070668,7.60566434 C6.23215565,7.18472486 5.97224338,6.74900263 5.72089364,6.32761675 C5.62397247,6.16510943 5.52779405,6.00386118 5.43326753,5.84517116 C5.20841944,5.47097794 4.91855912,5.00120328 4.66280036,4.58672518 C4.52648917,4.36583655 4.39776008,4.15718962 4.2930845,3.98604614 C3.9140574,3.36495281 3.59784398,2.882553 3.42814428,2.6380108 C3.30107302,2.4537042 3.21018899,2.32128892 3.10859735,2.16600414 L3.00069522,2.00107594 L3,2 L3.19583294,2.05402603 C3.44655282,2.12321255 3.70185999,2.15684146 3.97631252,2.15684146 C4.24973706,2.15684146 4.51267385,2.12292067 4.7577547,2.05605201 L4.81707443,2.03986137 L4.84700466,2.09180419 C5.33202647,2.93458739 6.63429147,4.99604677 7.4123348,6.22773727 C7.6806551,6.65244255 7.89303672,6.98872025 7.99890666,7.15925708 C7.99926912,7.15867333 7.99962565,7.1580724 7.99998217,7.15748865 C8.00034464,7.1580724 8.00074276,7.15867905 8.00109928,7.15925708 C8.10693951,6.98872025 8.31936867,6.65244255 8.58765332,6.22773727 C9.36571447,4.99604677 10.6679735,2.93458167 11.1530013,2.09180419 L11.182884,2.03986137 L11.2422453,2.05605201 C11.4873321,2.12292639 11.7502392,2.15684146 12.0236875,2.15684146 C12.29814,2.15684146 12.5534234,2.12321255 12.8041492,2.05402603 L13,2 L12.9992691,2.00107594 L12.9992691,2.00107594 Z" id="path-2"></path>
        <filter x="-50%" y="-50%" width="200%" height="200%" filterUnits="objectBoundingBox" id="filter-3">
            <feGaussianBlur stdDeviation="0.5" in="SourceAlpha" result="shadowBlurInner1"></feGaussianBlur>
            <feOffset dx="0" dy="0" in="shadowBlurInner1" result="shadowOffsetInner1"></feOffset>
            <feComposite in="shadowOffsetInner1" in2="SourceAlpha" operator="arithmetic" k2="-1" k3="1" result="shadowInnerInner1"></feComposite>
            <feColorMatrix values="0 0 0 0 0   0 0 0 0 0   0 0 0 0 0  0 0 0 0.696105072 0" type="matrix" in="shadowInnerInner1"></feColorMatrix>
        </filter>
    </defs>
    <g id="On-page-audit" stroke="none" stroke-width="1" fill="none" fill-rule="evenodd">
        <g id="audit_example_minimized_clear_background" transform="translate(-881.000000, -3603.000000)">
            <g id="5" transform="translate(130.000000, 3515.000000)">
                <g id="1" transform="translate(0.000000, 74.000000)">
                    <g id="Group" transform="translate(720.000000, 14.000000)">
                        <g id="icnYahoo" transform="translate(31.000000, 0.000000)">
                            <g id="Layer_1">
                                <g id="Shape">
                                    <use fill="url(#linearGradient-1)" fill-rule="evenodd" xlink:href="#path-2"></use>
                                    <use fill="black" fill-opacity="1" filter="url(#filter-3)" xlink:href="#path-2"></use>
                                </g>
                            </g>
                        </g>
                    </g>
                </g>
            </g>
        </g>
    </g>
</svg>