<?xml version="1.0" encoding="UTF-8" standalone="no"?>
<svg width="16px" height="16px" viewBox="0 0 16 16" version="1.1" xmlns="http://www.w3.org/2000/svg" xmlns:xlink="http://www.w3.org/1999/xlink">
    <!-- Generator: sketchtool 3.7.1 (28215) - http://www.bohemiancoding.com/sketch -->
    <title>0E50A6EB-CE76-49FD-B133-1E5C0BD49C80</title>
    <desc>Created with sketchtool.</desc>
    <defs></defs>
    <g id="Page-1" stroke="none" stroke-width="1" fill="none" fill-rule="evenodd">
        <g id="audit_example_minimized_clear_background" transform="translate(-145.000000, -10939.000000)" fill="#7C888D">
            <g id="11" transform="translate(130.000000, 10356.000000)">
                <g id="8" transform="translate(0.000000, 362.000000)">
                    <g id="table" transform="translate(0.000000, 48.000000)">
                        <g id="icons" transform="translate(15.000000, 56.000000)">
                            <path d="M0,118.99406 C0,117.892771 0.894513756,117 1.99406028,117 L14.0059397,117 C15.1072288,117 16,117.894514 16,118.99406 L16,131.00594 C16,132.107229 15.1054862,133 14.0059397,133 L1.99406028,133 C0.892771196,133 0,132.105486 0,131.00594 L0,118.99406 Z M2,120.002473 C2,119.448823 2.45576096,119 3.00247329,119 L12.9975267,119 C13.5511774,119 14,119.455761 14,120.002473 L14,129.997527 C14,130.551177 13.544239,131 12.9975267,131 L3.00247329,131 C2.44882258,131 2,130.544239 2,129.997527 L2,120.002473 Z M5.608,128.128 C5.38933224,128.128 5.18400096,128.093334 4.992,128.024 C4.79999904,127.954666 4.62533412,127.857334 4.468,127.732 C4.31066588,127.606666 4.1786672,127.457334 4.072,127.284 C3.9653328,127.110666 3.88800024,126.922668 3.84,126.72 L5.216,126.096 C5.2426668,126.202667 5.27866644,126.292 5.324,126.364 C5.36933356,126.436 5.42933296,126.472 5.504,126.472 C5.62133392,126.472 5.69466652,126.421334 5.724,126.32 C5.75333348,126.218666 5.768,126.074668 5.768,125.888 L5.768,122.336 L7.488,122.336 L7.488,126.04 C7.488,126.354668 7.45200036,126.641332 7.38,126.9 C7.30799964,127.158668 7.19600076,127.378666 7.044,127.56 C6.89199924,127.741334 6.69733452,127.881333 6.46,127.98 C6.22266548,128.078667 5.93866832,128.128 5.608,128.128 Z M9.6,128.144 C9.40799904,128.144 9.2253342,128.126667 9.052,128.092 C8.8786658,128.057333 8.7186674,128.010667 8.572,127.952 C8.4253326,127.893333 8.29066728,127.826667 8.168,127.752 C8.04533272,127.677333 7.94133376,127.602667 7.856,127.528 L8.688,126.208 C8.81066728,126.309334 8.9453326,126.392 9.092,126.456 C9.2386674,126.52 9.38399928,126.552 9.528,126.552 C9.61866712,126.552 9.69466636,126.529334 9.756,126.484 C9.81733364,126.438666 9.848,126.373334 9.848,126.288 C9.848,126.186666 9.80400044,126.101334 9.716,126.032 C9.62799956,125.962666 9.4906676,125.882667 9.304,125.792 C9.1439992,125.717333 8.99200072,125.633334 8.848,125.54 C8.70399928,125.446666 8.57600056,125.333334 8.464,125.2 C8.35199944,125.066666 8.262667,124.910668 8.196,124.732 C8.129333,124.553332 8.096,124.344001 8.096,124.104 C8.096,123.757332 8.15733272,123.462668 8.28,123.22 C8.40266728,122.977332 8.55866572,122.780001 8.748,122.628 C8.93733428,122.475999 9.14799884,122.365334 9.38,122.296 C9.61200116,122.226666 9.83999888,122.192 10.064,122.192 C10.405335,122.192 10.7106653,122.245333 10.98,122.352 C11.2493347,122.458667 11.4746658,122.597332 11.656,122.768 L10.8,124.072 C10.7093329,123.981333 10.6026673,123.905334 10.48,123.844 C10.3573327,123.782666 10.2400006,123.752 10.128,123.752 C10.0426662,123.752 9.96533368,123.773333 9.896,123.816 C9.82666632,123.858667 9.792,123.933333 9.792,124.04 C9.792,124.125334 9.82799964,124.194666 9.9,124.248 C9.97200036,124.301334 10.111999,124.378666 10.32,124.48 C10.4373339,124.538667 10.5679993,124.612 10.712,124.7 C10.8560007,124.788 10.9919994,124.899999 11.12,125.036 C11.2480006,125.172001 11.3559996,125.335999 11.444,125.528 C11.5320004,125.720001 11.576,125.946665 11.576,126.208 C11.576,126.549335 11.5200006,126.842665 11.408,127.088 C11.2959994,127.333335 11.1466676,127.533333 10.96,127.688 C10.7733324,127.842667 10.5613345,127.957333 10.324,128.032 C10.0866655,128.106667 9.84533456,128.144 9.6,128.144 Z" id="icn_js"></path>
                        </g>
                    </g>
                </g>
            </g>
        </g>
    </g>
</svg>