<?xml version="1.0" encoding="UTF-8" standalone="no"?>
<svg width="16px" height="16px" viewBox="0 0 16 16" version="1.1" xmlns="http://www.w3.org/2000/svg" xmlns:xlink="http://www.w3.org/1999/xlink">
    <!-- Generator: sketchtool 3.7.1 (28215) - http://www.bohemiancoding.com/sketch -->
    <title>5F648986-FAA8-476B-B542-D4A133D3CFE0</title>
    <desc>Created with sketchtool.</desc>
    <defs></defs>
    <g id="Page-1" stroke="none" stroke-width="1" fill="none" fill-rule="evenodd">
        <g id="audit_example_minimized_clear_background" transform="translate(-145.000000, -11017.000000)" fill="#7C888D">
            <g id="11" transform="translate(130.000000, 10356.000000)">
                <g id="8" transform="translate(0.000000, 362.000000)">
                    <g id="table" transform="translate(0.000000, 48.000000)">
                        <g id="icons" transform="translate(15.000000, 56.000000)">
                            <path d="M9.14285714,205.285714 L7,201 L4,207 L9,207 L12,207 L10,204 L9.14285714,205.285714 Z M0,196.99406 C0,195.892771 0.894513756,195 1.99406028,195 L14.0059397,195 C15.1072288,195 16,195.894514 16,196.99406 L16,209.00594 C16,210.107229 15.1054862,211 14.0059397,211 L1.99406028,211 C0.892771196,211 0,210.105486 0,209.00594 L0,196.99406 Z M2,198.002473 C2,197.448823 2.45576096,197 3.00247329,197 L12.9975267,197 C13.5511774,197 14,197.455761 14,198.002473 L14,207.997527 C14,208.551177 13.544239,209 12.9975267,209 L3.00247329,209 C2.44882258,209 2,208.544239 2,207.997527 L2,198.002473 Z M10.1742359,202 C11.002663,202 11.6742359,201.328427 11.6742359,200.5 C11.6742359,199.671573 11.002663,199 10.1742359,199 C9.34580874,199 8.67423587,199.671573 8.67423587,200.5 C8.67423587,201.328427 9.34580874,202 10.1742359,202 Z" id="icn_image"></path>
                        </g>
                    </g>
                </g>
            </g>
        </g>
    </g>
</svg>