<?xml version="1.0" encoding="UTF-8" standalone="no"?>
<svg width="17px" height="17px" viewBox="0 0 17 17" version="1.1" xmlns="http://www.w3.org/2000/svg" xmlns:xlink="http://www.w3.org/1999/xlink" xmlns:sketch="http://www.bohemiancoding.com/sketch/ns">
    <g id="Popups" stroke="none" stroke-width="1" fill="none" fill-rule="evenodd" sketch:type="MSPage">
        <g id="Detailed-Info" sketch:type="MSArtboardGroup" transform="translate(-346.000000, -353.000000)" fill="#424242" opacity="0.7">
            <g id="Detailed-Info-Popup" sketch:type="MSLayerGroup">
                <g id="window_expanded" transform="translate(325.000000, 243.000000)" sketch:type="MSShapeGroup">
                    <g id="URL" transform="translate(21.000000, 103.000000)">
                        <g id="icn_url-+-URL" transform="translate(0.000000, 6.000000)">
                            <path d="M6.65779568,8.60566028 C5.54159334,8.07095137 4.16774055,8.26728829 3.24485416,9.19017469 L1.11910688,11.315922 C-0.0472507331,12.4822796 -0.049725272,14.3853036 1.12249801,15.5575269 L2.53435624,16.9693851 C3.71002403,18.1450529 5.60561071,18.1431266 6.77596112,16.9727762 L8.9017084,14.8470289 C9.82094108,13.9277963 10.0172428,12.5509928 9.48531948,11.4349907 L6.06922347,14.8510868 C5.28919349,15.6311167 4.0291346,15.6357363 3.24264069,14.8492424 C2.4615921,14.0681938 2.46189426,12.8015617 3.24079634,12.0226596 L6.65779568,8.60566028 L6.65779568,8.60566028 L6.65779568,8.60566028 Z M10.4340874,10.4862228 C11.5502897,11.0209317 12.9241425,10.8245948 13.8470289,9.9017084 L15.9727762,7.77596112 C17.1391338,6.60960352 17.1416084,4.70657952 15.9693851,3.53435624 L14.5575269,2.12249801 C13.3818591,0.946830216 11.4862724,0.948756465 10.315922,2.11910688 L8.19017469,4.24485416 C7.27094201,5.16408683 7.07464026,6.54089032 7.60656362,7.65689235 L11.0226596,4.24079634 C11.8026896,3.46076636 13.0627485,3.45614678 13.8492424,4.24264069 C14.630291,5.02368927 14.6299888,6.29032138 13.8510868,7.06922347 L10.4340874,10.4862228 L10.4340874,10.4862228 L10.4340874,10.4862228 Z M9.60453037,7.07313916 C9.99619863,6.68147089 10.6275683,6.67782086 11.0208153,7.07106781 C11.4113396,7.4615921 11.4182932,8.08780347 11.0187439,8.48735272 L7.48735272,12.0187439 C7.09568446,12.4104122 6.46431477,12.4140622 6.07106781,12.0208153 C5.68054352,11.630291 5.6735899,11.0040796 6.07313916,10.6045304 L9.60453037,7.07313916 L9.60453037,7.07313916 Z" id="icn_url"></path>
                        </g>
                    </g>
                </g>
            </g>
        </g>
    </g>
</svg>