<?xml version="1.0" encoding="UTF-8" standalone="no"?>
<svg width="90px" height="30px" viewBox="0 0 90 30" version="1.1" xmlns="http://www.w3.org/2000/svg" xmlns:xlink="http://www.w3.org/1999/xlink">
    <!-- Generator: sketchtool 3.7.2 (28276) - http://www.bohemiancoding.com/sketch -->
    <title>CE721D9F-C060-43AB-BC0F-BAFCF15DA3A5</title>
    <desc>Created with sketchtool.</desc>
    <defs></defs>
    <g id="On-page-audit" stroke="none" stroke-width="1" fill="none" fill-rule="evenodd">
        <g id="audit_example_expanded_clear_background" transform="translate(-650.000000, -6767.000000)">
            <g id="5" transform="translate(130.000000, 6477.000000)">
                <g id="1" transform="translate(0.000000, 74.000000)">
                    <g id="Group-2" transform="translate(10.000000, 141.000000)">
                        <g id="img_logo_google" transform="translate(510.000000, 75.000000)">
                            <path d="M11.7205817,10.703076 L11.7205817,13.9036267 L19.2296343,13.9036267 C18.8586731,18.3916701 15.1932222,20.3056533 11.7332977,20.3056533 C7.30668699,20.3056533 3.44393872,16.7576692 3.44393872,11.784792 C3.44393872,6.9404327 7.12612022,3.20961819 11.7430163,3.20961819 C15.3050319,3.20961819 17.4039843,5.5227565 17.4039843,5.5227565 L19.6038471,3.20212362 C19.6038471,3.20212362 16.780266,1.30919313e-14 11.6305708,1.30919313e-14 C5.07303609,-9.25255322e-05 0,5.63785826 0,11.7276112 C0,17.6948604 4.77203092,23.5135135 11.797695,23.5135135 C17.9768388,23.5135135 22.5,19.2014536 22.5,12.824964 C22.5,11.4797353 22.3082704,10.7022433 22.3082704,10.7022433 L11.7205817,10.703076 Z" id="path2998" fill="#4885ED"></path>
                            <path d="M30.5424144,8.10810811 C26.3255819,8.10810811 23.3035714,11.449062 23.3035714,15.3455461 C23.3035714,19.2996559 26.2347778,22.7027027 30.5919599,22.7027027 C34.5363804,22.7027027 37.7678571,19.6474654 37.7678571,15.4305106 C37.7678571,10.5972729 34.0089237,8.10810811 30.5424144,8.10810811 L30.5424144,8.10810811 Z M30.5843456,10.9744759 C32.6580271,10.9744759 34.6230964,12.6734977 34.6230964,15.4112127 C34.6230964,18.0908551 32.6664022,19.8383004 30.5748244,19.8383004 C28.2766894,19.8383004 26.4636948,17.9730127 26.4636948,15.3899492 C26.4636948,12.8622779 28.2542088,10.9744759 30.5843456,10.9744759 L30.5843456,10.9744759 Z" id="path3000" fill="#DB3236"></path>
                            <path d="M46.613843,8.10810811 C42.3970104,8.10810811 39.375,11.449062 39.375,15.3455461 C39.375,19.2996559 42.3062064,22.7027027 46.6633884,22.7027027 C50.6078089,22.7027027 53.8392857,19.6474654 53.8392857,15.4305106 C53.8392857,10.5972729 50.0803522,8.10810811 46.613843,8.10810811 L46.613843,8.10810811 Z M46.6557733,10.9744759 C48.7294548,10.9744759 50.6945241,12.6734977 50.6945241,15.4112127 C50.6945241,18.0908551 48.7378299,19.8383004 46.6462521,19.8383004 C44.3481171,19.8383004 42.5351224,17.9730127 42.5351224,15.3899492 C42.5351224,12.8622779 44.3256365,10.9744759 46.6557733,10.9744759 L46.6557733,10.9744759 Z" id="path3005" fill="#F4C20D"></path>
                            <path d="M62.6845252,8.10810811 C58.6319148,8.10810811 55.4464286,11.662444 55.4464286,15.6518633 C55.4464286,20.1961593 59.1395064,23.2096683 62.6146494,23.2096683 C64.7634449,23.2096683 65.9060108,22.3555388 66.7495969,21.3751455 L66.7495969,22.8638755 C66.7495969,25.4686446 65.1702382,27.0284557 62.7863389,27.0284557 C60.4833921,27.0284557 59.3282726,25.3137265 58.926833,24.3406816 L56.0292498,25.5536832 C57.0571714,27.730209 59.1264913,30 62.8103385,30 C66.8396878,30 69.9107143,27.4585477 69.9107143,22.1284765 L69.9107143,8.56204782 L66.7496892,8.56204782 L66.7496892,9.84095432 C65.7777052,8.79211419 64.4484962,8.10829297 62.6845252,8.10829297 L62.6845252,8.10810811 Z M62.9778742,11.067636 C64.9647647,11.067636 67.0050081,12.7665592 67.0050081,15.6678542 C67.0050081,18.6168448 64.9691031,20.2420987 62.9339365,20.2420987 C60.7734181,20.2420987 58.7630818,18.4854047 58.7630818,15.6958615 C58.7630818,12.7973395 60.8509553,11.067636 62.9777819,11.067636 L62.9778742,11.067636 Z" id="path3007" fill="#4885ED"></path>
                            <path d="M83.2871474,8.10810811 C79.5104041,8.10810811 76.3392857,11.0488213 76.3392857,15.3880467 C76.3392857,19.9795755 79.8739067,22.7027027 83.6499205,22.7027027 C86.801432,22.7027027 88.7356747,21.0153848 89.890019,19.5036173 L87.3151326,17.8269199 C86.6469662,18.841756 85.5299023,19.8335662 83.6656972,19.8335662 C81.5716812,19.8335662 80.608846,18.711365 80.0123405,17.6243275 L90,13.5685529 L89.4814752,12.3799515 C88.5166338,10.0523702 86.265945,8.10855435 83.2875213,8.10855435 L83.2871474,8.10810811 Z M83.4172642,10.9116475 C84.7781649,10.9116475 85.7575975,11.619757 86.1735372,12.468753 L79.5036374,15.1970565 C79.2160818,13.0848301 81.2608709,10.9116475 83.4172642,10.9116475 L83.4172642,10.9116475 Z" id="path3011" fill="#DB3236"></path>
                            <polygon id="path3015" fill="#3CBA54" points="71.5178571 22.7027027 74.7321429 22.7027027 74.7321429 0.810810811 71.5178571 0.810810811"></polygon>
                        </g>
                    </g>
                </g>
            </g>
        </g>
    </g>
</svg>