<?xml version="1.0" encoding="UTF-8" standalone="no"?>
<svg width="81px" height="32px" viewBox="0 0 81 32" version="1.1" xmlns="http://www.w3.org/2000/svg" xmlns:xlink="http://www.w3.org/1999/xlink">
    <!-- Generator: Sketch 3.7.2 (28276) - http://www.bohemiancoding.com/sketch -->
    <title>img_logo_yandex_eng</title>
    <desc>Created with Sketch.</desc>
    <defs></defs>
    <g id="On-page-audit" stroke="none" stroke-width="1" fill="none" fill-rule="evenodd">
        <g id="audit_example_expanded_clear_background" transform="translate(-748.000000, -6959.000000)">
            <g id="5" transform="translate(130.000000, 6477.000000)">
                <g id="1" transform="translate(0.000000, 74.000000)">
                    <g id="Group-2" transform="translate(10.000000, 141.000000)">
                        <g id="img_logo_yandex_eng" transform="translate(608.000000, 266.000000)">
                            <g id="svg2">
                                <g id="g10" transform="translate(40.522882, 16.688003) scale(1, -1) translate(-40.522882, -16.688003) translate(0.022882, 0.688003)">
                                    <path d="M35.6968687,19.5974472 C33.8713619,19.5974472 31.9681611,18.2695792 31.9681611,18.2695792 L31.9681611,19.1232861 C31.9681611,19.3102861 31.8929906,19.3853306 31.7053866,19.3853306 L29.3754017,19.3853306 C29.187606,19.3853306 29.0748119,19.2727562 29.0748119,19.1232861 L29.0748119,0.922479861 C29.0748119,0.734845833 29.1501358,0.622271528 29.3380619,0.622271528 L31.7055477,0.622271528 C31.8553594,0.622271528 31.9683222,0.734845833 31.9683222,0.922479861 L31.9683222,16.5018868 C31.9683222,16.5018868 33.0670994,17.1957958 34.4015361,17.1957958 C35.6721545,17.1957958 36.675358,16.5673979 36.675358,15.2781674 L36.675358,0.922479861 C36.675358,0.734845833 36.7880062,0.622271528 36.9759477,0.622271528 L39.3051426,0.622271528 C39.4930841,0.622271528 39.5680628,0.772215278 39.5680628,0.922479861 L39.5680628,16.0940312 C39.5682239,18.3789757 38.158494,19.5974472 35.6968687,19.5974472 L35.6968687,19.5974472 Z" id="path38" fill="#010202"></path>
                                    <path d="M53.8205114,28.7270347 L51.4905187,28.7270347 C51.3025696,28.7270347 51.1897679,28.6146132 51.1897679,28.4648299 L51.1897679,19.2827785 C50.295531,19.6249549 49.4810437,19.8055917 48.8229264,19.8055917 C45.0390068,19.8055917 42.4411466,16.2004104 42.4411466,9.26799653 C42.4411466,3.32890556 44.9683312,0.143817361 48.2661128,0.143817361 C49.6562293,0.143817361 50.8035145,0.937581944 51.6436824,1.68237361 L52.1523179,0.823097917 C52.2379815,0.674422222 52.3083426,0.623539583 52.4806594,0.623539583 L53.8203503,0.622011806 C53.9704841,0.622011806 54.0834392,0.734586111 54.0834392,0.922220139 L54.0834392,28.4645701 C54.083654,28.6520361 54.0082687,28.7267674 53.8205114,28.7267674 L53.8205114,28.7270347 Z M45.522583,9.88097153 C45.522583,13.7008132 46.6443562,17.4834458 48.9350915,17.4834458 C49.710958,17.4834458 50.4563497,17.2290326 51.1900901,16.6481792 L51.1900901,3.19040486 C50.6163707,2.8793875 49.8942665,2.59221111 49.1140969,2.59221111 C46.6232932,2.59237917 45.522583,5.53688056 45.522583,9.88097153 L45.522583,9.88097153 Z" id="path40" fill="#010202"></path>
                                    <path d="M62.7456068,19.767909 C58.8656301,19.767909 56.9502946,14.7092382 56.9502946,9.20391389 C56.9502946,3.44179306 59.6817051,0.212025 63.1936074,0.212025 C64.7375241,0.212025 66.2739315,0.817689583 67.2814534,1.37548889 C67.435898,1.46103681 67.4638185,1.58188403 67.4266398,1.73055208 L67.1319563,2.94791597 C67.0952148,3.09674444 67.0202821,3.17100208 66.8334528,3.17100208 C66.7512793,3.17100208 65.4785974,2.79988194 64.2400491,2.79988194 C61.3660142,2.79988194 60.0480153,5.34606875 60.0480153,8.72784306 L60.0480153,9.54974931 C60.0480153,9.54974931 61.4765838,9.35274236 62.3347773,9.35274236 L67.7567378,9.35274236 L67.7567378,10.9145208 C67.7567378,16.6804535 65.7310091,19.767909 62.7456068,19.767909 L62.7456068,19.767909 Z M62.5589233,11.6962007 C61.7007375,11.6962007 60.1388028,11.4848785 60.1388028,11.4848785 C60.1388028,11.4848785 60.1596665,12.1053243 60.2345301,12.7006458 C60.5703733,15.862359 61.3270866,17.4614993 62.6332807,17.4614993 C63.7690832,17.4614993 64.5468597,15.82515 64.7340034,12.9607882 C64.7708983,12.365459 64.7708983,11.6960403 64.7708983,11.6960403 L62.558954,11.6960403 L62.558954,11.6962007 L62.5589233,11.6962007 Z" id="path42" fill="#010202"></path>
                                    <path d="M24.6495196,17.4037799 C23.7879741,19.0954576 22.2533233,19.8350014 20.4954545,19.8350014 C19.3660415,19.8350014 17.6037085,19.4045729 16.4265929,18.877459 C16.1963719,18.7742729 16.0507023,18.6834694 16.0507023,18.5028403 C16.0507023,18.3955139 16.104242,18.2721229 16.1634963,18.1655833 L16.9564372,16.4734243 C17.0384344,16.2822993 17.1691082,16.2387271 17.2772693,16.2387271 C17.3945429,16.2387271 17.4899557,16.294109 17.5952557,16.3613236 C18.7433463,17.0926021 19.58445,17.4945681 20.2502378,17.4945681 C21.1310821,17.4945681 21.7292088,16.9121257 22.0980886,16.0364722 C22.4415869,15.2204403 22.5747997,14.0929174 22.5747997,12.790166 C22.5747997,12.6240049 22.5754364,12.4072819 22.5754364,12.4072819 C21.8519054,12.8585417 20.5985224,13.1072257 19.9729432,13.1072257 C16.6065571,13.1072257 14.7910909,9.91960903 14.7910909,6.51079306 C14.7910909,2.83803819 16.9128844,0.143977778 19.4625665,0.143977778 C20.8826668,0.143977778 22.1681199,0.974622917 23.029021,2.02201389 C23.029021,2.02201389 23.487392,0.932968056 23.5472216,0.802266667 C23.6075114,0.671870833 23.6711915,0.623692361 23.8435006,0.623692361 L25.2060111,0.622164583 C25.3559761,0.622164583 25.4689389,0.734746528 25.4689389,0.922372917 L25.4689389,11.4803181 C25.468517,14.0745382 25.3369994,16.0537056 24.6495196,17.4035278 L24.6495196,17.4037799 Z M22.575283,3.57154722 C21.9079074,2.92915486 21.1082702,2.59237917 20.3888813,2.59237917 C19.6696611,2.59237917 19.1137986,2.92358611 18.6680301,3.53672153 C18.1254145,4.28294931 17.8723815,5.43209792 17.8723815,6.70527153 C17.8723815,8.71894375 18.6182565,10.7850875 20.1994977,10.7850875 C20.9819071,10.7850875 21.8415349,10.5313083 22.5754364,9.94982083 L22.5754364,3.57154722 L22.575283,3.57154722 L22.575283,3.57154722 Z" id="path44" fill="#010202"></path>
                                    <path d="M80.0613051,19.3877139 L77.9846676,19.3877139 C77.7526901,19.3877139 77.634473,19.2665535 77.5746435,19.1096125 C77.4430185,18.7655187 76.5653651,16.4616604 76.2054366,15.5072958 C75.9488906,14.8254715 75.2578977,12.8730174 75.2578977,12.8730174 L75.1774884,12.8736514 C75.1751872,12.8805264 74.6688605,14.2939042 74.3949256,15.0016549 C74.1731497,15.5753507 73.0163071,18.61255 72.8698321,18.987184 C72.7918082,19.1883236 72.7043881,19.3877139 72.4069969,19.3877139 L70.1333284,19.3877139 C69.8834787,19.3877139 69.7419665,19.1145472 69.822698,18.9450403 C69.903583,18.7750597 73.5262082,10.551666 73.5262082,10.551666 C73.5262082,10.551666 69.6358687,1.34336736 69.5221159,1.13666667 C69.4083477,0.929790278 69.5514937,0.623707639 69.8282744,0.623707639 L71.8208361,0.623707639 C72.1598702,0.623707639 72.2935662,0.800838194 72.3953531,1.08609722 C72.6817372,1.88559097 73.1082068,2.99753056 73.712071,4.71592917 C74.1120469,5.85474236 74.7446523,7.85345764 74.7446523,7.85345764 L74.8142233,7.85345764 C74.8142233,7.85345764 75.5072872,5.81641806 75.7649455,5.15032986 C76.4158909,3.46612292 77.2487182,1.26609236 77.3371048,1.03377847 C77.4290045,0.790823611 77.5577531,0.623539583 77.7908429,0.623539583 L80.0503134,0.623539583 C80.2738381,0.623539583 80.3773815,0.877960417 80.2722426,1.09929722 C80.020644,1.62720556 77.8749264,6.82373542 76.385094,10.2398542 C76.385094,10.2398542 80.2519773,18.7446951 80.3274392,18.9550625 C80.4029165,19.1654299 80.3801352,19.3877139 80.0613205,19.3877139 L80.0613051,19.3877139 Z" id="path46" fill="#010202"></path>
                                    <path d="M17.1442253,31.4657826 L14.5249722,31.4657826 C14.2929869,31.4657826 14.1481304,31.3522535 14.1146259,31.1876813 C14.0814128,31.0224674 10.1866398,19.1868951 9.9036,18.2010431 C9.70289489,17.5020542 9.04844403,15.0380618 8.89144517,14.4463917 L7.5369196,18.1321938 C7.2077804,19.1466611 4.05309886,27.9302451 3.96055483,28.2811757 C3.90954631,28.4740576 3.82064574,28.7138347 3.48145057,28.7138347 L0.924274432,28.7138347 C0.674271307,28.7138347 0.53274375,28.4405 0.613482955,28.2710007 C0.677761364,28.1352118 5.29690909,15.888125 7.16294659,11.2094736 L7.16294659,0.922640278 C7.16294659,0.73500625 7.23827045,0.622431944 7.42602784,0.622431944 L9.84792017,0.622431944 C9.99806165,0.622431944 10.1106869,0.73500625 10.1106869,0.922640278 L10.1106869,10.6740944 L10.1106869,11.1283868 C11.6662551,15.4581625 17.3482747,30.8607597 17.4100219,31.0331236 C17.4854991,31.2438042 17.4633315,31.4657826 17.1442253,31.4657826 L17.1442253,31.4657826 Z" id="path48" fill="#E52620"></path>
                                </g>
                            </g>
                        </g>
                    </g>
                </g>
            </g>
        </g>
    </g>
</svg>