<?xml version="1.0" encoding="UTF-8" standalone="no"?>
<svg width="78px" height="30px" viewBox="0 0 78 30" version="1.1" xmlns="http://www.w3.org/2000/svg" xmlns:xlink="http://www.w3.org/1999/xlink">
    <!-- Generator: sketchtool 3.7.2 (28276) - http://www.bohemiancoding.com/sketch -->
    <title>CA856BD0-D6FD-42A3-A46A-EF28F8FCEBCD</title>
    <desc>Created with sketchtool.</desc>
    <defs></defs>
    <g id="On-page-audit" stroke="none" stroke-width="1" fill="none" fill-rule="evenodd">
        <g id="audit_example_expanded_clear_background" transform="translate(-650.000000, -7011.000000)" fill="#ECB832">
            <g id="5" transform="translate(130.000000, 6477.000000)">
                <g id="1" transform="translate(0.000000, 74.000000)">
                    <g id="Group-2" transform="translate(10.000000, 141.000000)">
                        <g id="img_logo_bing" transform="translate(510.000000, 319.000000)">
                            <polyline id="Fill-76" points="6.79308711 30 0 25.2135624 0 0 6.83489072 2.10439039 6.83489072 19.0571217 0.198447036 25.0034614 16.3954251 16.4378632 11.9049002 14.3965031 8.86596971 7.77276899 23.877551 12.3969217 23.877551 19.7709819 6.79308711 30"></polyline>
                            <path d="M34.5725572,16.4864151 L34.5725572,18.245834 C34.5725572,19.2875639 34.8978161,20.1715495 35.5485623,20.8975533 C36.19908,21.623082 37.0252467,21.9858463 38.0268338,21.9858463 C39.2017858,21.9858463 40.1225151,21.5187902 40.7887932,20.5837277 C41.4555282,19.6486653 41.7883247,18.3484628 41.7883247,16.6835955 C41.7883247,15.2807642 41.4767706,14.1820183 40.8536623,13.3859324 C40.2307824,12.5905591 39.3872564,12.1926349 38.3223991,12.1926349 C37.1947284,12.1926349 36.2877039,12.6005369 35.6017823,13.4170536 C34.9156323,14.2330952 34.5725572,15.2562949 34.5725572,16.4864151 L34.5725572,16.4864151 Z M34.5725572,21.5679665 L34.5725572,23.3886776 L32.6326531,23.3886776 L32.6326531,4.73684211 L34.7020214,5.33764825 L34.7020214,12.6096869 C35.8155206,10.9362671 36.9699709,10.4949834 38.8073181,10.4949834 C40.3609773,10.4949834 41.5775003,11.0587291 42.4566586,12.1866957 C43.3362737,13.3141872 43.7755102,14.825824 43.7755102,16.7201808 C43.7755102,18.8283475 43.2830537,20.5160212 42.2972269,21.7832019 C41.3111718,23.0506202 39.9626266,23.6842105 38.2513629,23.6842105 C36.6506508,23.6842105 35.4400665,22.9786375 34.6198386,21.5679665 L34.5725572,21.5679665 Z" id="Fill-77"></path>
                            <path d="M47.2861121,11.2828593 L49.3469388,11.2828593 L49.3469388,24.4736842 L47.2861121,24.4736842 L47.2861121,11.2828593 Z M48.3387181,8.27039341 C47.957134,8.27039341 47.6313548,8.14129838 47.3626372,7.88360582 C47.0936682,7.62616199 46.9591837,7.29981773 46.9591837,6.90457305 C46.9591837,6.5095771 47.0936682,6.18099421 47.3626372,5.91932183 C47.6313548,5.65740072 47.957134,5.52656453 48.3387181,5.52631579 C48.7296029,5.52656453 49.0614151,5.65740072 49.3349088,5.91932183 C49.6081511,6.18099421 49.744898,6.5095771 49.744898,6.90457305 C49.744898,7.28265481 49.6081511,7.60452178 49.3349088,7.87092018 C49.0614151,8.13706984 48.7296029,8.27039341 48.3387181,8.27039341 L48.3387181,8.27039341 Z" id="Fill-78"></path>
                            <path d="M62.877551,24.4736842 L60.8813094,24.4736842 L60.8813094,16.9948487 C60.8813094,14.2114282 59.9152723,12.8197179 57.9841384,12.8197179 C56.9859001,12.8197179 56.1601851,13.2146293 55.5069936,14.0046994 C54.8538022,14.7942749 54.5266188,15.7908265 54.5266188,16.9948487 L54.5266188,24.4736842 L52.5306122,24.4736842 L52.5306122,11.3600047 L54.5266188,11.3600047 L54.5266188,13.5368394 L54.5755083,13.5368394 C55.5171006,11.880536 56.8805997,11.0526316 58.6657704,11.0526316 C60.0292694,11.0526316 61.0719313,11.5157932 61.7939912,12.441869 C62.5162861,13.3681922 62.877551,14.7067366 62.877551,16.4570076 L62.877551,24.4736842" id="Fill-79"></path>
                            <path d="M75.9333506,18.319795 L75.9333506,16.4534824 C75.9333506,14.4602033 74.2738017,12.7948415 72.3035131,12.7948415 C69.3121884,12.7948415 68.241755,15.4649573 68.2205848,17.9861498 C68.2205848,20.3939794 69.4684098,22.5400002 72.0139438,22.5400002 C74.563371,22.5400002 75.9078003,20.5655752 75.9333506,18.319795 L75.9333506,18.319795 Z M78,23.0290123 C78,27.6761783 75.7316254,30 71.1948761,30 C69.5983511,30 68.2035513,29.703347 67.0104767,29.1102796 L67.5757454,27.2945628 C68.8396306,27.9064842 70.0039915,28.2489597 71.1639724,28.2489597 C74.234868,28.2489597 75.9333506,26.6131916 75.9333506,23.3008448 L75.9333506,21.9166232 L75.8824934,21.9166232 C74.8996609,23.5313893 73.4211536,24.3392496 71.4464851,24.3392496 C69.84193,24.3392496 68.5505479,23.7767306 67.5716087,22.6519312 C66.5931562,21.5273705 66.0612245,19.9963737 66.0612245,18.1011834 C66.0612245,15.9506281 66.6306298,14.2618778 67.6847597,12.9926897 C68.7393763,11.7235017 70.2122868,11.0526316 72.0436307,11.0526316 C73.7829937,11.0526316 75.0422555,11.6705195 75.8824934,13.0382736 L75.9333506,13.0382736 L75.9333506,11.3860381 L78,11.3860381 L78,23.0290123 L78,23.0290123 Z" id="Fill-80"></path>
                        </g>
                    </g>
                </g>
            </g>
        </g>
    </g>
</svg>