<?xml version="1.0" encoding="UTF-8" standalone="no"?>
<svg width="101px" height="24px" viewBox="0 0 101 24" version="1.1" xmlns="http://www.w3.org/2000/svg" xmlns:xlink="http://www.w3.org/1999/xlink">
    <!-- Generator: sketchtool 3.7.2 (28276) - http://www.bohemiancoding.com/sketch -->
    <title>EA3F0119-86F8-49FB-BFC2-EDB3D95513B7</title>
    <desc>Created with sketchtool.</desc>
    <defs>
        <linearGradient x1="9.69914973%" y1="98.3597778%" x2="76.2603829%" y2="9.86309197%" id="linearGradient-1">
            <stop stop-color="#230D46" offset="0%"></stop>
            <stop stop-color="#472B7E" offset="59.42%"></stop>
            <stop stop-color="#543A96" offset="100%"></stop>
        </linearGradient>
        <linearGradient x1="2.54010878%" y1="4.30078569%" x2="93.0608326%" y2="99.40523%" id="linearGradient-2">
            <stop stop-color="#584099" offset="0%"></stop>
            <stop stop-color="#553695" offset="100%"></stop>
        </linearGradient>
        <linearGradient x1="43.6000487%" y1="50.9986169%" x2="57.8809701%" y2="48.5935415%" id="linearGradient-3">
            <stop stop-color="#2D1A58" offset="0%"></stop>
            <stop stop-color="#230E47" offset="100%"></stop>
        </linearGradient>
        <linearGradient x1="13.3875125%" y1="97.8581511%" x2="87.4579823%" y2="12.112767%" id="linearGradient-4">
            <stop stop-color="#23134E" offset="0%"></stop>
            <stop stop-color="#3F2979" offset="100%"></stop>
        </linearGradient>
        <linearGradient x1="44.7914698%" y1="46.0705232%" x2="56.466929%" y2="51.0511592%" id="linearGradient-5">
            <stop stop-color="#1F0A40" offset="0%"></stop>
            <stop stop-color="#23144F" offset="100%"></stop>
        </linearGradient>
        <linearGradient x1="87.1304191%" y1="0.00856861538%" x2="12.4550362%" y2="97.4665673%" id="linearGradient-6">
            <stop stop-color="#584099" offset="0%"></stop>
            <stop stop-color="#4B2C85" offset="100%"></stop>
        </linearGradient>
        <linearGradient x1="17.2134243%" y1="1.55497093%" x2="96.8012316%" y2="96.8489416%" id="linearGradient-7">
            <stop stop-color="#553A96" offset="0%"></stop>
            <stop stop-color="#584099" offset="100%"></stop>
        </linearGradient>
        <linearGradient x1="42.8566115%" y1="51.7994548%" x2="54.882993%" y2="46.4355584%" id="linearGradient-8">
            <stop stop-color="#2B1B5A" stop-opacity="0.9804" offset="0%"></stop>
            <stop stop-color="#2E1B5B" offset="31.77%"></stop>
            <stop stop-color="#2A1754" offset="59.76%"></stop>
            <stop stop-color="#26134D" offset="80.88%"></stop>
            <stop stop-color="#241049" offset="100%"></stop>
        </linearGradient>
        <linearGradient x1="15.78533%" y1="-0.0517706145%" x2="79.2708375%" y2="100.524658%" id="linearGradient-9">
            <stop stop-color="#584099" offset="0%"></stop>
            <stop stop-color="#573B97" offset="100%"></stop>
        </linearGradient>
        <linearGradient x1="50.8911459%" y1="0.710197737%" x2="50.8911459%" y2="100.229864%" id="linearGradient-10">
            <stop stop-color="#230D46" offset="0%"></stop>
            <stop stop-color="#27124D" offset="25%"></stop>
            <stop stop-color="#2E1B5A" offset="50%"></stop>
            <stop stop-color="#39256D" offset="74.85%"></stop>
            <stop stop-color="#432B80" offset="100%"></stop>
        </linearGradient>
        <linearGradient x1="2.40057414%" y1="99.2385386%" x2="100.501311%" y2="3.8195877%" id="linearGradient-11">
            <stop stop-color="#512E91" offset="0%"></stop>
            <stop stop-color="#573B97" offset="100%"></stop>
        </linearGradient>
        <linearGradient x1="0.084646697%" y1="47.9157688%" x2="99.578373%" y2="47.9157688%" id="linearGradient-12">
            <stop stop-color="#604EA0" offset="0%"></stop>
            <stop stop-color="#604EA0" offset="50.6%"></stop>
            <stop stop-color="#604EA0" offset="100%"></stop>
        </linearGradient>
        <linearGradient x1="27.2373922%" y1="50.0748448%" x2="99.3135609%" y2="50.0748448%" id="linearGradient-13">
            <stop stop-color="#5B449B" offset="0%"></stop>
            <stop stop-color="#543394" offset="100%"></stop>
        </linearGradient>
        <linearGradient x1="0.828678679%" y1="49.9962225%" x2="100.713037%" y2="49.9962225%" id="linearGradient-14">
            <stop stop-color="#3E2A7A" offset="0%"></stop>
            <stop stop-color="#37246A" offset="50%"></stop>
            <stop stop-color="#281855" offset="100%"></stop>
        </linearGradient>
        <linearGradient x1="-0.700624459%" y1="50.0748448%" x2="73.3857418%" y2="50.0748448%" id="linearGradient-15">
            <stop stop-color="#442C83" offset="0%"></stop>
            <stop stop-color="#241550" offset="100%"></stop>
        </linearGradient>
        <linearGradient x1="0.0205071461%" y1="51.0123158%" x2="99.8579849%" y2="51.0123158%" id="linearGradient-16">
            <stop stop-color="#604EA0" offset="0%"></stop>
            <stop stop-color="#604EA0" offset="50%"></stop>
            <stop stop-color="#604EA0" offset="100%"></stop>
        </linearGradient>
        <linearGradient x1="77.6157292%" y1="10.6587973%" x2="22.5753579%" y2="89.3179254%" id="linearGradient-17">
            <stop stop-color="#1E0C44" offset="0%"></stop>
            <stop stop-color="#332062" offset="10.01%"></stop>
            <stop stop-color="#392369" offset="20.48%"></stop>
            <stop stop-color="#402874" offset="30%"></stop>
            <stop stop-color="#402874" offset="40%"></stop>
            <stop stop-color="#4D2D8B" offset="50%"></stop>
            <stop stop-color="#543694" offset="60%"></stop>
            <stop stop-color="#573E98" offset="70.03%"></stop>
            <stop stop-color="#583F99" offset="80.31%"></stop>
            <stop stop-color="#59429A" offset="90%"></stop>
            <stop stop-color="#5C469C" offset="100%"></stop>
        </linearGradient>
        <linearGradient x1="18.7238352%" y1="91.5502305%" x2="81.0057547%" y2="9.63439311%" id="linearGradient-18">
            <stop stop-color="#1F0A40" offset="0%"></stop>
            <stop stop-color="#1F0A40" offset="10.01%"></stop>
            <stop stop-color="#1F0A40" offset="20.48%"></stop>
            <stop stop-color="#271651" offset="30%"></stop>
            <stop stop-color="#362267" offset="40%"></stop>
            <stop stop-color="#412977" offset="50%"></stop>
            <stop stop-color="#4D2D8C" offset="60%"></stop>
            <stop stop-color="#543394" offset="70.03%"></stop>
            <stop stop-color="#583F99" offset="80.31%"></stop>
            <stop stop-color="#59429A" offset="90%"></stop>
            <stop stop-color="#5D4A9E" offset="100%"></stop>
        </linearGradient>
        <linearGradient x1="72.4408232%" y1="7.64468691%" x2="27.4479238%" y2="92.7454639%" id="linearGradient-19">
            <stop stop-color="#200E46" offset="0%"></stop>
            <stop stop-color="#311E5E" offset="10.01%"></stop>
            <stop stop-color="#372368" offset="20.48%"></stop>
            <stop stop-color="#442A7C" offset="30%"></stop>
            <stop stop-color="#4D2D8B" offset="40%"></stop>
            <stop stop-color="#553695" offset="50%"></stop>
            <stop stop-color="#584099" offset="60%"></stop>
            <stop stop-color="#543394" offset="70.03%"></stop>
            <stop stop-color="#583F99" offset="80.31%"></stop>
            <stop stop-color="#59429A" offset="90%"></stop>
            <stop stop-color="#5D4A9E" offset="100%"></stop>
        </linearGradient>
        <linearGradient x1="24.1146383%" y1="94.9926887%" x2="75.1370419%" y2="6.62880381%" id="linearGradient-20">
            <stop stop-color="#1F0A40" offset="0%"></stop>
            <stop stop-color="#1F0A40" offset="10.01%"></stop>
            <stop stop-color="#1F0A40" offset="20.48%"></stop>
            <stop stop-color="#271651" offset="30%"></stop>
            <stop stop-color="#362267" offset="40%"></stop>
            <stop stop-color="#412977" offset="50%"></stop>
            <stop stop-color="#4D2D8C" offset="60%"></stop>
            <stop stop-color="#543394" offset="70.03%"></stop>
            <stop stop-color="#583F99" offset="80.31%"></stop>
            <stop stop-color="#59429A" offset="90%"></stop>
            <stop stop-color="#5D4A9E" offset="100%"></stop>
        </linearGradient>
        <radialGradient cx="54.4013012%" cy="20.4954661%" fx="54.4013012%" fy="20.4954661%" r="81.7179245%" id="radialGradient-21">
            <stop stop-color="#5D499E" offset="0%"></stop>
            <stop stop-color="#5C469C" offset="20.89%"></stop>
            <stop stop-color="#584099" offset="37.42%"></stop>
            <stop stop-color="#311E60" offset="72.1%"></stop>
            <stop stop-color="#230D46" offset="100%"></stop>
        </radialGradient>
        <linearGradient x1="1.0925079%" y1="99.6521735%" x2="67.8032674%" y2="11.0172224%" id="linearGradient-22">
            <stop stop-color="#4B2C85" offset="0%"></stop>
            <stop stop-color="#563A97" offset="100%"></stop>
        </linearGradient>
        <linearGradient x1="0.128229811%" y1="49.9962225%" x2="100.161036%" y2="49.9962225%" id="linearGradient-23">
            <stop stop-color="#584099" offset="0%"></stop>
            <stop stop-color="#563A96" offset="100%"></stop>
        </linearGradient>
        <radialGradient cx="53.7238106%" cy="32.0330508%" fx="53.7238106%" fy="32.0330508%" r="75.0990385%" id="radialGradient-24">
            <stop stop-color="#604EA0" offset="0%"></stop>
            <stop stop-color="#5C469C" offset="39.94%"></stop>
            <stop stop-color="#584099" stop-opacity="0.045045" offset="70.12%"></stop>
            <stop stop-color="#230E47" stop-opacity="0" offset="100%"></stop>
        </radialGradient>
    </defs>
    <g id="On-page-audit" stroke="none" stroke-width="1" fill="none" fill-rule="evenodd">
        <g id="audit_example_expanded_clear_background" transform="translate(-650.000000, -6892.000000)">
            <g id="5" transform="translate(130.000000, 6477.000000)">
                <g id="1" transform="translate(0.000000, 74.000000)">
                    <g id="Group-2" transform="translate(10.000000, 141.000000)">
                        <g id="img_logo_yahoo" transform="translate(510.000000, 200.000000)">
                            <g id="Layer_1">
                                <g id="layer1" transform="translate(0.156840, 0.137271)">
                                    <path d="M99.3747126,0.520481928 C100.158333,0.636144578 100.651724,1.12771084 100.651724,1.9373494 C100.651724,2.19759036 100.535632,2.57349398 100.477586,2.89156627 C99.9551724,5.17590361 97.9525862,13.1855422 97.0818966,18.5349398 L96.2982759,17.7542169 L98.7942529,1.27228916 L99.3747126,0.520481928 L99.3747126,0.520481928 Z" id="path3223" fill="url(#linearGradient-1)"></path>
                                    <path d="M49.0198276,2.71807229 C47.975,2.97831325 46.9591954,2.94939759 45.9433908,2.71807229 L47.5396552,4.36626506 L49.0198276,2.71807229 L49.0198276,2.71807229 Z" id="path3201" fill="#604EA0"></path>
                                    <path d="M33.0571839,2.71807229 C34.1020115,2.97831325 35.1178161,2.94939759 36.1336207,2.71807229 L34.5373563,4.36626506 L33.0571839,2.71807229 L33.0571839,2.71807229 Z" id="path3193" fill="#604EA0"></path>
                                    <path d="M24.0310345,2.71807229 C26.3818966,8.64578313 30.0968391,17.6385542 31.9543103,21.0795181 L29.2261494,20.2409639 L22.4637931,3.38313253 L24.0310345,2.71807229 L24.0310345,2.71807229 Z" id="path3181" fill="url(#linearGradient-2)"></path>
                                    <path d="M21.8833333,2.71807229 C22.637931,2.97831325 23.2474138,2.97831325 24.0310345,2.71807229 L22.5218391,3.64337349 L21.8833333,2.71807229 L21.8833333,2.71807229 Z" id="path3175" fill="#604EA0"></path>
                                    <path d="M22.9862069,3.35421687 L29.8936782,20.2120482 C29.4873563,20.6457831 29.3132184,20.8771084 28.9068966,21.0795181 C26.9043103,15.9614458 24.7566092,10.8144578 22.9571839,5.75421687 L22.0574713,4.25060241 L22.9862069,3.35421687 L22.9862069,3.35421687 Z" id="path3177" fill="url(#linearGradient-3)"></path>
                                    <path d="M17.0364943,21.0795181 L15.0048851,20.3566265 L22.1735632,3.58554217 L22.9862069,3.3253012 L22.9862069,5.81204819 C21.8543103,9.05060241 19.0390805,16.0771084 17.0364943,21.0795181 L17.0364943,21.0795181 L17.0364943,21.0795181 Z" id="path3173" fill="url(#linearGradient-4)"></path>
                                    <path d="M15.3531609,0.260240964 L16.0206897,1.79277108 L17.733046,0.98313253 L18.4295977,0.260240964 C17.3557471,0.520481928 16.3399425,0.520481928 15.3531609,0.260240964 L15.3531609,0.260240964 L15.3531609,0.260240964 Z" id="path3167" fill="#604EA0"></path>
                                    <path d="M10.5063218,13.6192771 L9.3454023,14.053012 L8.61982759,12.7807229 L15.9336207,1.15662651 L16.4560345,0.98313253 C17.1816092,0.809638554 17.9652299,0.636144578 18.4876437,0.318072289 C17.2977011,1.82168675 13.0603448,9.1373494 10.5063218,13.6192771 L10.5063218,13.6192771 L10.5063218,13.6192771 Z" id="path3165" fill="url(#linearGradient-5)"></path>
                                    <path d="M8.91005747,13.4168675 L9.22931034,13.0987952 L16.4560345,0.925301205 L15.3531609,0.260240964 C14.4824713,1.87951807 11.2609195,7.11325301 9.20028736,10.4963855 L8.21350575,12.346988 L8.91005747,13.4168675 L8.91005747,13.4168675 Z" id="path3163" fill="url(#linearGradient-6)"></path>
                                    <path d="M3.07643678,0.260240964 C4.67270115,3.0939759 7.13965517,7.05542169 9.22931034,10.4963855 L9.22931034,13.1277108 L8.73591954,13.6192771 L1.53821839,0.896385542 L3.07643678,0.260240964 L3.07643678,0.260240964 Z" id="path3161" fill="url(#linearGradient-7)"></path>
                                    <path d="M1.88649425,1.04096386 L3.07643678,0.260240964 C1.79942529,0.520481928 1.27701149,0.54939759 0,0.260240964 L0.493390805,0.809638554 L1.88649425,1.04096386 L1.88649425,1.04096386 Z" id="path3159" fill="#604EA0"></path>
                                    <path d="M9.20028736,13.1277108 L8.64885057,13.9373494 L7.92327586,13.6192771 C6.5591954,11.2481928 2.525,4.04819277 3.28626015e-14,0.260240964 C0.522413793,0.636144578 1.18994253,0.838554217 2.00258621,0.954216867 L9.20028736,13.1277108 L9.20028736,13.1277108 Z" id="path3157" fill="url(#linearGradient-8)"></path>
                                    <polygon id="path3155" fill="url(#linearGradient-9)" points="10.6804598 23.4795181 8.5908046 22.4963855 8.76494253 13.7927711 9.20028736 13.1277108 10.4772989 13.6192771"></polygon>
                                    <polygon id="path3153" fill="url(#linearGradient-10)" points="9.20028736 22.7855422 7.72011494 23.4506024 7.89425287 13.5903614 9.17126437 13.0987952 9.17126437 22.7855422"></polygon>
                                    <path d="M14.0181034,21.0795181 C16.5721264,15.8746988 19.4454023,8.87710843 21.9123563,2.68915663 L22.9862069,3.3253012 L15.9916667,20.3855422 L14.5695402,20.8771084 L14.0181034,21.0795181 L14.0181034,21.0795181 Z" id="path3171" fill="url(#linearGradient-11)"></path>
                                    <path d="M29.8066092,20.1831325 L31.9543103,21.0795181 C31.1416667,20.8771084 30.0097701,20.7903614 28.8778736,21.0795181 L29.2841954,20.0385542 L29.8066092,20.1831325 L29.8066092,20.1831325 Z" id="path3179" fill="#220D45"></path>
                                    <path d="M18.1974138,15.0650602 L19.7066092,14.4289157 C21.8833333,14.5156627 24.0600575,14.5156627 26.2367816,14.4289157 L27.775,15.0939759 L26.3528736,15.4120482 L19.2712644,15.4120482 L18.1974138,15.0650602 L18.1974138,15.0650602 Z" id="path3185" fill="url(#linearGradient-12)"></path>
                                    <path d="M19.1841954,15.7012048 L18.1683908,15.0650602 C21.3609195,15.0072289 24.5534483,15.0072289 27.745977,15.0939759 L26.7301724,15.7012048 C24.2341954,15.6144578 21.7091954,15.6144578 19.1841954,15.7012048 L19.1841954,15.7012048 Z" id="path3183" fill="#220D45"></path>
                                    <path d="M36.1336207,21.0795181 L33.9859195,20.3566265 L33.9859195,3.8746988 L34.5954023,3.55662651 L36.1336207,2.68915663 C35.8143678,8.81927711 35.8143678,14.9493976 36.1336207,21.0795181 L36.1336207,21.0795181 Z" id="path3191" fill="url(#linearGradient-13)"></path>
                                    <path d="M34.5954023,20.2120482 L34.5954023,20.6457831 L33.0571839,21.0795181 C33.2893678,14.9783133 33.3183908,8.84819277 33.0571839,2.71807229 L34.5954023,3.58554217 L34.5954023,20.2120482 L34.5954023,20.2120482 Z" id="path3189" fill="url(#linearGradient-14)"></path>
                                    <path d="M45.9433908,21.0795181 L48.091092,20.3566265 L48.091092,3.8746988 L47.4816092,3.55662651 L45.9433908,2.68915663 C46.2626437,8.81927711 46.2916667,14.9493976 45.9433908,21.0795181 L45.9433908,21.0795181 Z" id="path3199" fill="url(#linearGradient-15)"></path>
                                    <path d="M34.5954023,11.8554217 L35.9014368,11.2771084 C39.3261494,11.3638554 42.7798851,11.3638554 46.2045977,11.2771084 L47.5106322,11.8554217 L45.9143678,12.2313253 L35.9014368,12.2313253 L34.5954023,11.8554217 L34.5954023,11.8554217 Z" id="path3205" fill="url(#linearGradient-16)"></path>
                                    <path d="M59.8744253,2.71807229 C53.8376437,2.71807229 50.8192529,6.47710843 50.8192529,11.9421687 C50.8192529,18.7951807 55.3758621,21.1662651 59.7873563,21.1662651 C65.0114943,21.1662651 68.7844828,18.2168675 68.7844828,11.9710843 C68.7844828,5.92771084 65.2436782,2.71807229 59.8744253,2.71807229 L59.8744253,2.71807229 L59.8744253,2.71807229 Z M59.7002874,3.58554217 L59.8744253,3.58554217 C63.8505747,3.58554217 66.7818966,6.30361446 66.7818966,11.9421687 C66.7818966,17.5807229 63.8505747,20.2987952 59.8744253,20.2987952 C55.520977,20.2987952 52.966954,17.2048193 52.966954,11.9710843 C52.966954,6.04337349 56.1304598,3.64337349 59.7002874,3.58554217 L59.7002874,3.58554217 Z" id="path3207" fill="url(#linearGradient-17)"></path>
                                    <path d="M59.8454023,2.45783133 C53.3152299,2.45783133 49.9195402,6.56385542 49.9195402,11.913253 C49.9195402,17.7542169 53.6635057,21.3108434 59.8454023,21.3108434 C66.5497126,21.3108434 69.8002874,17.2915663 69.8002874,11.9710843 C69.8002874,6.04337349 65.9112069,2.45783133 59.8454023,2.45783133 L59.8454023,2.45783133 L59.8454023,2.45783133 Z M59.8744253,3.06506024 C65.0114943,3.06506024 68.4362069,6.15903614 68.4362069,11.9421687 C68.4362069,17.9566265 64.8373563,20.7903614 59.7873563,20.7903614 C55.55,20.7903614 51.1675287,18.5060241 51.1675287,11.9421687 C51.1965517,6.67951807 54.0698276,3.06506024 59.8744253,3.06506024 L59.8744253,3.06506024 L59.8744253,3.06506024 Z" id="path3209" fill="url(#linearGradient-18)"></path>
                                    <path d="M82.3962644,1.76385542 C76.2724138,1.76385542 72.0640805,5.20481928 72.0640805,11.9421687 C72.0640805,18.5349398 75.9821839,22.2361446 82.4252874,22.2361446 C87.3011494,22.2361446 92.6413793,19.7493976 92.6413793,12.0578313 C92.6413793,3.73012048 86.8077586,1.76385542 82.3962644,1.76385542 L82.3962644,1.76385542 L82.3962644,1.76385542 Z M82.3672414,2.51566265 C87.2431034,2.51566265 90.841954,5.46506024 90.841954,11.9710843 C90.841954,19.0554217 86.4885057,21.339759 82.3962644,21.339759 C78.0137931,21.339759 74.0086207,18.7662651 74.0086207,11.826506 C73.9795977,4.62650602 78.4201149,2.51566265 82.3672414,2.51566265 L82.3672414,2.51566265 Z" id="path3213" fill="url(#linearGradient-19)"></path>
                                    <path d="M82.3672414,1.35903614 C75.866092,1.35903614 70.9031609,5.0313253 70.9031609,11.8554217 C70.9031609,17.4939759 74.2117816,22.4385542 82.4252874,22.4385542 C89.3617816,22.4385542 93.9183908,18.6216867 93.9183908,11.9710843 C93.8893678,5.66746988 89.6520115,1.35903614 82.3672414,1.35903614 L82.3672414,1.35903614 L82.3672414,1.35903614 Z M82.3962644,2.05301205 C86.6916667,2.05301205 92.3801724,3.96144578 92.3801724,12.0578313 C92.3801724,19.546988 87.1850575,21.9759036 82.4252874,21.9759036 C76.1563218,21.9759036 72.3543103,18.3903614 72.3543103,11.9710843 C72.3543103,5.40722892 76.4465517,2.05301205 82.3962644,2.05301205 L82.3962644,2.05301205 Z" id="path3215" fill="url(#linearGradient-20)"></path>
                                    <path d="M94.4117816,22.1204819 C94.4117816,21.339759 94.9051724,20.5879518 95.862931,20.5879518 C96.7916667,20.5879518 97.4882184,21.1373494 97.4882184,22.0337349 C97.4882184,23.1325301 96.7626437,23.5373494 96.0951149,23.5373494 C95.1373563,23.5373494 94.4117816,23.0746988 94.4117816,22.1204819 L94.4117816,22.1204819 L94.4117816,22.1204819 Z" id="path3217" fill="url(#radialGradient-21)"></path>
                                    <path d="M95.95,18.3903614 C96.7045977,13.1277108 97.1689655,7.57590361 97.6043103,2.05301205 C97.6043103,0.954216867 98.3298851,0.520481928 99.0844828,0.520481928 C99.2005747,0.520481928 99.4037356,0.54939759 99.4037356,0.54939759 L99.2005747,1.87951807 L96.5594828,18.2746988 L95.95,18.3903614 L95.95,18.3903614 Z" id="path3221" fill="url(#linearGradient-22)"></path>
                                    <path d="M7.74913793,23.4795181 L9.22931034,22.4096386 L10.7094828,23.4795181 C10.7094828,23.4795181 9.89683908,23.3349398 9.22931034,23.3349398 C8.61982759,23.3349398 7.74913793,23.4795181 7.74913793,23.4795181 L7.74913793,23.4795181 Z" id="path3151" fill="#220D45"></path>
                                    <path d="M14.0181034,21.0795181 L16.0787356,20.1831325 C16.3979885,20.5590361 16.6591954,20.8771084 17.0655172,21.0795181 C16.3109195,20.8771084 15.179023,20.7903614 14.0181034,21.0795181 L14.0181034,21.0795181 L14.0181034,21.0795181 Z" id="path3169" fill="#220D45"></path>
                                    <path d="M33.0571839,21.0795181 C34.0439655,20.8481928 35.0887931,20.8192771 36.1336207,21.0795181 L34.5954023,20.2120482 L33.0571839,21.0795181 L33.0571839,21.0795181 Z" id="path3187" fill="#220D45"></path>
                                    <path d="M35.9014368,12.5493976 L34.5954023,11.8843373 C38.8908046,11.9421687 43.1862069,11.9421687 47.4816092,11.8843373 L46.1755747,12.5493976 C42.7508621,12.4915663 39.3261494,12.4915663 35.9014368,12.5493976 L35.9014368,12.5493976 L35.9014368,12.5493976 Z" id="path3203" fill="#220D45"></path>
                                    <path d="M47.4816092,20.2120482 L47.4816092,20.6457831 L49.0198276,21.0795181 C48.7876437,14.9783133 48.7586207,8.84819277 49.0198276,2.71807229 L47.4816092,3.58554217 L47.4816092,20.2120482 L47.4816092,20.2120482 Z" id="path3197" fill="url(#linearGradient-23)"></path>
                                    <path d="M49.0198276,21.0795181 C48.033046,20.8481928 46.9882184,20.8192771 45.9433908,21.0795181 L47.4816092,20.2120482 L49.0198276,21.0795181 L49.0198276,21.0795181 Z" id="path3195" fill="#220D45"></path>
                                    <path d="M96.6175287,17.7831325 L95.95,18.3903614 C96.4143678,18.3036145 96.7626437,18.4192771 97.1109195,18.5638554 L96.6175287,17.7831325 L96.6175287,17.7831325 Z" id="path3219" fill="#220D45"></path>
                                    <path d="M100.622701,1.85060241 C100.622701,2.57349398 99.9551724,3.15180723 99.1135057,3.15180723 C98.2718391,3.15180723 97.6043103,2.57349398 97.6043103,1.85060241 C97.6043103,1.12771084 98.2718391,0.54939759 99.1135057,0.54939759 C99.9551724,0.54939759 100.622701,1.12771084 100.622701,1.85060241 L100.622701,1.85060241 Z" id="path3507" fill="url(#radialGradient-24)"></path>
                                </g>
                            </g>
                        </g>
                    </g>
                </g>
            </g>
        </g>
    </g>
</svg>