<?xml version="1.0" encoding="UTF-8" standalone="no"?>
<svg width="16px" height="16px" viewBox="0 0 16 16" version="1.1" xmlns="http://www.w3.org/2000/svg" xmlns:xlink="http://www.w3.org/1999/xlink">
    <!-- Generator: sketchtool 3.8.3 (29802) - http://www.bohemiancoding.com/sketch -->
    <title>706F4B11-D445-4B79-9A7B-33BF0AF28E10</title>
    <desc>Created with sketchtool.</desc>
    <defs></defs>
    <g id="On-page-audit" stroke="none" stroke-width="1" fill="none" fill-rule="evenodd">
        <g id="on-page-audit-filters-v3" transform="translate(-144.000000, -764.000000)" fill="#7C888D">
            <g id="Group" transform="translate(130.000000, 754.000000)">
                <g id="All-checks">
                    <path d="M22,26 C26.418278,26 30,22.418278 30,18 C30,13.581722 26.418278,10 22,10 C17.581722,10 14,13.581722 14,18 C14,22.418278 17.581722,26 22,26 Z M18,16.4910052 C18,16.2198305 18.214035,16 18.5046844,16 L19.4953156,16 C19.7740451,16 20,16.2278805 20,16.4910052 L20,21.5089948 C20,21.7801695 19.785965,22 19.4953156,22 L18.5046844,22 C18.2259549,22 18,21.7721195 18,21.5089948 L18,16.4910052 Z M21,14.5004358 C21,14.2240528 21.214035,14 21.5046844,14 L22.4953156,14 C22.7740451,14 23,14.2307968 23,14.5004358 L23,21.4995642 C23,21.7759472 22.785965,22 22.4953156,22 L21.5046844,22 C21.2259549,22 21,21.7692032 21,21.4995642 L21,14.5004358 Z M24,18.4904785 C24,18.2195947 24.214035,18 24.5046844,18 L25.4953156,18 C25.7740451,18 26,18.2150574 26,18.4904785 L26,21.5095215 C26,21.7804053 25.785965,22 25.4953156,22 L24.5046844,22 C24.2259549,22 24,21.7849426 24,21.5095215 L24,18.4904785 Z" id="icn-all-checks"></path>
                </g>
            </g>
        </g>
    </g>
</svg>