<?xml version="1.0" encoding="UTF-8" standalone="no"?>
<svg width="16px" height="16px" viewBox="0 0 16 16" version="1.1" xmlns="http://www.w3.org/2000/svg" xmlns:xlink="http://www.w3.org/1999/xlink">
    <!-- Generator: sketchtool 3.7.2 (28276) - http://www.bohemiancoding.com/sketch -->
    <title>EA08EE6D-9512-4326-86AE-46B433D5D1A8</title>
    <desc>Created with sketchtool.</desc>
    <defs></defs>
    <g id="On-page-audit" stroke="none" stroke-width="1" fill="none" fill-rule="evenodd">
        <g id="audit_example_expanded_clear_background" transform="translate(-160.000000, -595.000000)" fill="#F6A623">
            <g id="Categories-Score" transform="translate(130.000000, 215.000000)">
                <g id="Overall-Score" transform="translate(30.000000, 20.000000)">
                    <g id="TXT" transform="translate(0.000000, 320.000000)">
                        <g id="icnImprovements" transform="translate(0.000000, 40.000000)">
                            <path d="M8,16 C12.418278,16 16,12.418278 16,8 C16,3.581722 12.418278,0 8,0 C3.581722,0 0,3.581722 0,8 C0,12.418278 3.581722,16 8,16 Z M7,3.50342274 C7,3.22539004 7.21403503,3 7.50468445,3 L8.49531555,3 C8.77404508,3 9,3.23290253 9,3.50342274 L9,9.49657726 C9,9.77460996 8.78596497,10 8.49531555,10 L7.50468445,10 C7.22595492,10 7,9.76709747 7,9.49657726 L7,3.50342274 Z M8,13 C8.55228475,13 9,12.5522847 9,12 C9,11.4477153 8.55228475,11 8,11 C7.44771525,11 7,11.4477153 7,12 C7,12.5522847 7.44771525,13 8,13 Z"></path>
                        </g>
                    </g>
                </g>
            </g>
        </g>
    </g>
</svg>