<?xml version="1.0" encoding="UTF-8" standalone="no"?>
<svg width="16px" height="16px" viewBox="0 0 16 16" version="1.1" xmlns="http://www.w3.org/2000/svg" xmlns:xlink="http://www.w3.org/1999/xlink" xmlns:sketch="http://www.bohemiancoding.com/sketch/ns">
    <!-- Generator: Sketch 3.5.1 (25234) - http://www.bohemiancoding.com/sketch -->
    <title>icn_ya_ru_16</title>
    <desc>Created with Sketch.</desc>
    <defs>
        <linearGradient x1="50%" y1="0%" x2="50%" y2="100%" id="linearGradient-1">
            <stop stop-color="#FFFFFF" offset="0%"></stop>
            <stop stop-color="#F6F5F3" offset="100%"></stop>
        </linearGradient>
        <linearGradient x1="50%" y1="0%" x2="50%" y2="100%" id="linearGradient-2">
            <stop stop-color="#BEC0C1" offset="0%"></stop>
            <stop stop-color="#A4A4A6" offset="100%"></stop>
        </linearGradient>
    </defs>
    <g id="Traffic-Estimation" stroke="none" stroke-width="1" fill="none" fill-rule="evenodd" sketch:type="MSPage">
        <g id="Traffic-Estimation-v2" sketch:type="MSArtboardGroup" transform="translate(-77.000000, -886.000000)">
            <g id="Current-Estimate" sketch:type="MSLayerGroup" transform="translate(69.000000, 427.000000)">
                <g id="Table" transform="translate(0.000000, 181.000000)" sketch:type="MSShapeGroup">
                    <g id="Page-Analysis" transform="translate(0.000000, 75.000000)">
                        <g id="icn_ya_ru_16" transform="translate(8.000000, 203.000000)">
                            <path d="M0,1.99406028 C0,0.892771196 0.901950359,0 2.0085302,0 L10.9975267,0 C11.5511774,0 12.2038598,0.407719612 12.4433532,0.886706352 L16,8 L12.4433532,15.1132936 C12.198496,15.603008 11.544239,16 10.9975267,16 L2.0085302,16 C0.899249601,16 0,15.1054862 0,14.0059397 L0,1.99406028 Z" id="Rectangle-284" fill="url(#linearGradient-1)"></path>
                            <path d="M1,1.99406028 L1,1.99406028 L1,14.0059397 C1,14.5523144 1.45066217,15 2.0085302,15 L10.9975267,15 C11.1697509,15 11.4753736,14.8131849 11.548926,14.6660801 L15.1055728,7.5527864 L15.1055728,8.4472136 L11.548926,1.33391995 C11.4771231,1.19031414 11.1685879,1 10.9975267,1 L2.0085302,1 C1.45148424,1 1,1.44781571 1,1.99406028 L1,1.99406028 Z M0,1.99406028 C0,0.892771196 0.901950359,0 2.0085302,0 L10.9975267,0 C11.5511774,0 12.2038598,0.407719612 12.4433532,0.886706352 L16,8 L12.4433532,15.1132936 C12.198496,15.603008 11.544239,16 10.9975267,16 L2.0085302,16 C0.899249601,16 0,15.1054862 0,14.0059397 L0,1.99406028 L0,1.99406028 Z" id="Shape" fill="url(#linearGradient-2)"></path>
                            <path d="M9,3 L9,13 L8,13 L7.99999998,9.25 L7.25,9.24780621 L5.5,13 L4.25,12.9999998 L6.25,9 C6.25,9 4.73115885,8.60901417 4.73115885,6.24515208 C4.73115885,3.88128998 6.19411111,2.99862369 7,2.99862369 C7.80588889,2.99862369 9,3 9,3 Z M5.75353777,6.25 C5.710043,4.40568018 7,4 7,4 L8,4 L8,8.5 L7,8.5 C7,8.5 5.79703255,8.09431982 5.75353777,6.25 Z" id="Path-241" fill="#DB1F0B"></path>
                        </g>
                    </g>
                </g>
            </g>
        </g>
    </g>
</svg>